<?xml version="1.0" encoding="UTF-8"?>
<svg xmlns="http://www.w3.org/2000/svg" width="20.0mm" height="20.0mm" viewBox="0 0 20.0 20.0">
  <title>Battle Mage</title>
  <path d="M 7.095,10.748 L 7.095,10.919 L 7.138,10.919 L 7.138,11.047 L 7.180,11.047 L 7.180,11.089 L 7.223,11.089 L 7.223,11.175 L 7.266,11.175 L 7.266,11.260 L 7.308,11.260 L 7.308,11.346 L 7.351,11.346 L 7.351,11.388 L 7.394,11.388 L 7.394,11.474 L 7.437,11.474 L 7.437,11.559 L 7.479,11.559 L 7.479,11.602 L 7.522,11.602 L 7.522,11.688 L 7.565,11.688 L 7.565,11.773 L 7.608,11.773 L 7.608,11.816 L 7.650,11.816 L 7.650,11.944 L 7.693,11.944 L 7.693,12.200 L 7.736,12.200 L 7.736,12.414 L 7.778,12.414 L 7.778,12.713 L 7.821,12.713 L 7.821,12.969 L 7.864,12.969 L 7.864,13.140 L 7.907,13.140 L 7.907,13.183 L 7.949,13.183 L 7.949,13.226 L 7.992,13.226 L 7.992,13.268 L 8.035,13.268 L 8.035,13.311 L 8.077,13.311 L 8.077,13.354 L 8.120,13.354 L 8.120,13.396 L 8.163,13.396 L 8.163,13.439 L 8.206,13.439 L 8.206,13.482 L 8.248,13.482 L 8.248,13.525 L 8.291,13.525 L 8.291,13.567 L 8.334,13.567 L 8.334,13.610 L 8.377,13.610 L 8.377,13.653 L 8.419,13.653 L 8.419,13.696 L 8.462,13.696 L 8.462,13.738 L 8.505,13.738 L 8.505,13.781 L 8.547,13.781 L 8.547,13.824 L 8.590,13.824 L 8.590,13.866 L 8.676,13.866 L 8.676,13.909 L 8.718,13.909 L 8.718,13.952 L 8.761,13.952 L 8.761,13.995 L 8.804,13.995 L 8.804,14.037 L 8.846,14.037 L 8.846,14.080 L 8.975,14.080 L 8.975,14.123 L 10.085,14.123 L 10.085,14.080 L 10.214,14.080 L 10.214,14.037 L 10.256,14.037 L 10.256,13.995 L 10.299,13.995 L 10.299,13.952 L 10.385,13.952 L 10.385,13.909 L 10.427,13.909 L 10.427,13.866 L 10.470,13.866 L 10.470,13.824 L 10.513,13.824 L 10.513,13.781 L 10.555,13.781 L 10.555,13.738 L 10.598,13.738 L 10.598,13.696 L 10.641,13.696 L 10.641,13.653 L 10.684,13.653 L 10.684,13.610 L 10.726,13.610 L 10.726,13.567 L 10.769,13.567 L 10.769,13.525 L 10.812,13.525 L 10.812,13.482 L 10.854,13.482 L 10.854,13.439 L 10.897,13.439 L 10.897,13.396 L 10.940,13.396 L 10.940,13.354 L 11.025,13.354 L 11.025,13.311 L 11.068,13.311 L 11.068,13.268 L 11.111,13.268 L 11.111,13.226 L 11.154,13.226 L 11.154,13.140 L 11.196,13.140 L 11.196,13.012 L 11.239,13.012 L 11.239,12.798 L 11.282,12.798 L 11.282,12.499 L 11.324,12.499 L 11.324,12.243 L 11.367,12.243 L 11.367,11.987 L 11.410,11.987 L 11.410,11.858 L 11.453,11.858 L 11.453,11.773 L 11.495,11.773 L 11.495,11.688 L 11.538,11.688 L 11.538,11.645 L 11.581,11.645 L 11.581,11.559 L 11.623,11.559 L 11.623,11.474 L 11.666,11.474 L 11.666,11.431 L 11.709,11.431 L 11.709,11.346 L 11.752,11.346 L 11.752,11.260 L 11.794,11.260 L 11.794,11.218 L 11.837,11.218 L 11.837,11.132 L 11.880,11.132 L 11.880,11.047 L 11.923,11.047 L 11.923,10.919 L 11.965,10.919 L 11.965,10.705 L 11.923,10.705 L 11.923,10.619 L 11.880,10.619 L 11.880,10.577 L 11.837,10.577 L 11.837,10.534 L 11.752,10.534 L 11.752,10.491 L 11.410,10.491 L 11.410,10.534 L 11.154,10.534 L 11.154,10.577 L 10.854,10.577 L 10.854,10.534 L 10.641,10.534 L 10.641,10.491 L 10.513,10.491 L 10.513,10.449 L 10.427,10.449 L 10.427,10.406 L 10.342,10.406 L 10.342,10.363 L 10.299,10.363 L 10.299,10.320 L 10.256,10.320 L 10.256,10.278 L 10.171,10.278 L 10.171,10.235 L 10.128,10.235 L 10.128,10.192 L 10.085,10.192 L 10.085,10.150 L 10.043,10.150 L 10.043,10.064 L 10.000,10.064 L 10.000,10.021 L 9.957,10.021 L 9.957,9.979 L 9.915,9.979 L 9.915,9.893 L 9.872,9.893 L 9.872,9.850 L 9.829,9.850 L 9.829,9.765 L 9.786,9.765 L 9.786,9.722 L 9.744,9.722 L 9.744,9.680 L 9.701,9.680 L 9.701,9.637 L 9.359,9.637 L 9.359,9.680 L 9.316,9.680 L 9.316,9.722 L 9.274,9.722 L 9.274,9.765 L 9.231,9.765 L 9.231,9.850 L 9.188,9.850 L 9.188,9.893 L 9.146,9.893 L 9.146,9.979 L 9.103,9.979 L 9.103,10.021 L 9.060,10.021 L 9.060,10.107 L 9.017,10.107 L 9.017,10.150 L 8.975,10.150 L 8.975,10.192 L 8.932,10.192 L 8.932,10.235 L 8.889,10.235 L 8.889,10.278 L 8.804,10.278 L 8.804,10.320 L 8.761,10.320 L 8.761,10.363 L 8.718,10.363 L 8.718,10.406 L 8.633,10.406 L 8.633,10.449 L 8.547,10.449 L 8.547,10.491 L 8.419,10.491 L 8.419,10.534 L 8.206,10.534 L 8.206,10.577 L 7.949,10.577 L 7.949,10.534 L 7.650,10.534 L 7.650,10.491 L 7.308,10.491 L 7.308,10.534 L 7.223,10.534 L 7.223,10.577 L 7.180,10.577 L 7.180,10.619 L 7.138,10.619 L 7.138,10.748 Z M 0.900,12.328 L 0.943,12.328 L 0.943,12.286 L 0.985,12.286 L 0.985,12.243 L 1.028,12.243 L 1.028,12.200 L 1.156,12.200 L 1.156,12.158 L 1.285,12.158 L 1.285,12.115 L 1.370,12.115 L 1.370,12.072 L 1.498,12.072 L 1.498,12.029 L 1.626,12.029 L 1.626,11.987 L 1.754,11.987 L 1.754,11.944 L 1.840,11.944 L 1.840,11.901 L 1.968,11.901 L 1.968,11.858 L 2.096,11.858 L 2.096,11.816 L 2.224,11.816 L 2.224,11.773 L 2.353,11.773 L 2.353,11.730 L 2.481,11.730 L 2.481,11.688 L 2.609,11.688 L 2.609,11.645 L 2.737,11.645 L 2.737,11.602 L 2.865,11.602 L 2.865,11.559 L 2.993,11.559 L 2.993,11.517 L 3.164,11.517 L 3.164,11.474 L 3.292,11.474 L 3.292,11.431 L 3.421,11.431 L 3.421,11.388 L 3.549,11.388 L 3.549,11.346 L 3.634,11.346 L 3.634,11.260 L 3.677,11.260 L 3.677,11.175 L 3.720,11.175 L 3.720,11.089 L 3.762,11.089 L 3.762,10.961 L 3.805,10.961 L 3.805,10.876 L 3.848,10.876 L 3.848,10.790 L 3.891,10.790 L 3.891,10.705 L 3.933,10.705 L 3.933,10.577 L 3.976,10.577 L 3.976,10.491 L 4.019,10.491 L 4.019,10.406 L 4.062,10.406 L 4.062,10.320 L 4.104,10.320 L 4.104,10.192 L 4.147,10.192 L 4.147,10.107 L 4.190,10.107 L 4.190,9.979 L 4.232,9.979 L 4.232,9.893 L 4.275,9.893 L 4.275,9.808 L 4.318,9.808 L 4.318,9.680 L 4.361,9.680 L 4.361,9.594 L 4.403,9.594 L 4.403,9.466 L 4.446,9.466 L 4.446,9.381 L 4.489,9.381 L 4.489,9.252 L 4.531,9.252 L 4.531,9.167 L 4.574,9.167 L 4.574,9.039 L 4.617,9.039 L 4.617,8.911 L 4.660,8.911 L 4.660,8.825 L 4.702,8.825 L 4.702,8.697 L 4.745,8.697 L 4.745,8.569 L 4.788,8.569 L 4.788,8.483 L 4.831,8.483 L 4.831,8.355 L 4.873,8.355 L 4.873,8.227 L 4.916,8.227 L 4.916,8.099 L 4.959,8.099 L 4.959,8.013 L 5.001,8.013 L 5.001,7.885 L 5.044,7.885 L 5.044,7.757 L 5.087,7.757 L 5.087,7.629 L 5.130,7.629 L 5.130,7.501 L 5.172,7.501 L 5.172,7.373 L 5.215,7.373 L 5.215,7.244 L 5.258,7.244 L 5.258,7.116 L 5.300,7.116 L 5.300,6.988 L 5.343,6.988 L 5.343,6.860 L 5.386,6.860 L 5.386,6.732 L 5.429,6.732 L 5.429,6.604 L 5.471,6.604 L 5.471,6.433 L 5.514,6.433 L 5.514,6.304 L 5.557,6.304 L 5.557,6.176 L 5.600,6.176 L 5.600,6.005 L 5.642,6.005 L 5.642,5.877 L 5.685,5.877 L 5.685,5.706 L 5.728,5.706 L 5.728,5.578 L 5.770,5.578 L 5.770,5.450 L 5.813,5.450 L 5.813,5.279 L 5.856,5.279 L 5.856,5.108 L 5.899,5.108 L 5.899,4.937 L 5.941,4.937 L 5.941,4.809 L 5.984,4.809 L 5.984,4.681 L 6.027,4.681 L 6.027,4.596 L 6.069,4.596 L 6.069,4.553 L 6.112,4.553 L 6.112,4.510 L 6.155,4.510 L 6.155,4.467 L 6.198,4.467 L 6.198,4.425 L 6.240,4.425 L 6.240,4.382 L 6.283,4.382 L 6.283,4.339 L 6.369,4.339 L 6.369,4.296 L 6.411,4.296 L 6.411,4.254 L 6.454,4.254 L 6.454,4.211 L 6.497,4.211 L 6.497,4.168 L 6.539,4.168 L 6.539,4.126 L 6.582,4.126 L 6.582,4.083 L 6.668,4.083 L 6.668,4.040 L 6.710,4.040 L 6.710,3.997 L 6.753,3.997 L 6.753,3.955 L 6.796,3.955 L 6.796,3.912 L 6.838,3.912 L 6.838,3.869 L 6.924,3.869 L 6.924,3.827 L 6.967,3.827 L 6.967,3.784 L 7.009,3.784 L 7.009,3.741 L 7.052,3.741 L 7.052,3.698 L 7.138,3.698 L 7.138,3.656 L 7.180,3.656 L 7.180,3.613 L 7.223,3.613 L 7.223,3.570 L 7.266,3.570 L 7.266,3.527 L 7.351,3.527 L 7.351,3.485 L 7.394,3.485 L 7.394,3.442 L 7.437,3.442 L 7.437,3.399 L 7.522,3.399 L 7.522,3.357 L 7.565,3.357 L 7.565,3.314 L 7.608,3.314 L 7.608,3.271 L 7.650,3.271 L 7.650,3.228 L 7.736,3.228 L 7.736,3.186 L 7.778,3.186 L 7.778,3.143 L 7.821,3.143 L 7.821,3.100 L 7.907,3.100 L 7.907,3.058 L 7.949,3.058 L 7.949,3.015 L 7.992,3.015 L 7.992,2.972 L 8.077,2.972 L 8.077,2.929 L 8.120,2.929 L 8.120,2.887 L 8.163,2.887 L 8.163,2.844 L 8.248,2.844 L 8.248,2.801 L 8.291,2.801 L 8.291,2.758 L 8.377,2.758 L 8.377,2.716 L 8.419,2.716 L 8.419,2.673 L 8.462,2.673 L 8.462,2.630 L 8.547,2.630 L 8.547,2.588 L 8.590,2.588 L 8.590,2.545 L 8.633,2.545 L 8.633,2.502 L 8.718,2.502 L 8.718,2.459 L 8.761,2.459 L 8.761,2.417 L 8.846,2.417 L 8.846,2.374 L 8.889,2.374 L 8.889,2.331 L 8.932,2.331 L 8.932,2.288 L 9.017,2.288 L 9.017,2.246 L 9.060,2.246 L 9.060,2.203 L 9.146,2.203 L 9.146,2.160 L 9.188,2.160 L 9.188,2.118 L 9.231,2.118 L 9.231,2.075 L 9.316,2.075 L 9.316,2.032 L 9.359,2.032 L 9.359,1.989 L 9.445,1.989 L 9.445,1.947 L 9.658,1.947 L 9.658,1.989 L 9.701,1.989 L 9.701,2.032 L 9.744,2.032 L 9.744,2.075 L 9.829,2.075 L 9.829,2.118 L 9.872,2.118 L 9.872,2.160 L 9.957,2.160 L 9.957,2.203 L 10.000,2.203 L 10.000,2.246 L 10.085,2.246 L 10.085,2.288 L 10.128,2.288 L 10.128,2.331 L 10.171,2.331 L 10.171,2.374 L 10.256,2.374 L 10.256,2.417 L 10.299,2.417 L 10.299,2.459 L 10.342,2.459 L 10.342,2.502 L 10.427,2.502 L 10.427,2.545 L 10.470,2.545 L 10.470,2.588 L 10.555,2.588 L 10.555,2.630 L 10.598,2.630 L 10.598,2.673 L 10.641,2.673 L 10.641,2.716 L 10.726,2.716 L 10.726,2.758 L 10.769,2.758 L 10.769,2.801 L 10.812,2.801 L 10.812,2.844 L 10.897,2.844 L 10.897,2.887 L 10.940,2.887 L 10.940,2.929 L 11.025,2.929 L 11.025,2.972 L 11.068,2.972 L 11.068,3.015 L 11.111,3.015 L 11.111,3.058 L 11.196,3.058 L 11.196,3.100 L 11.239,3.100 L 11.239,3.143 L 11.282,3.143 L 11.282,3.186 L 11.367,3.186 L 11.367,3.228 L 11.410,3.228 L 11.410,3.271 L 11.453,3.271 L 11.453,3.314 L 11.495,3.314 L 11.495,3.357 L 11.581,3.357 L 11.581,3.399 L 11.623,3.399 L 11.623,3.442 L 11.666,3.442 L 11.666,3.485 L 11.752,3.485 L 11.752,3.527 L 11.794,3.527 L 11.794,3.570 L 11.837,3.570 L 11.837,3.613 L 11.880,3.613 L 11.880,3.656 L 11.965,3.656 L 11.965,3.698 L 12.008,3.698 L 12.008,3.741 L 12.051,3.741 L 12.051,3.784 L 12.093,3.784 L 12.093,3.827 L 12.179,3.827 L 12.179,3.869 L 12.222,3.869 L 12.222,3.912 L 12.264,3.912 L 12.264,3.955 L 12.307,3.955 L 12.307,3.997 L 12.350,3.997 L 12.350,4.040 L 12.435,4.040 L 12.435,4.083 L 12.478,4.083 L 12.478,4.126 L 12.521,4.126 L 12.521,4.168 L 12.563,4.168 L 12.563,4.211 L 12.606,4.211 L 12.606,4.254 L 12.692,4.254 L 12.692,4.296 L 12.734,4.296 L 12.734,4.339 L 12.777,4.339 L 12.777,4.382 L 12.820,4.382 L 12.820,4.425 L 12.862,4.425 L 12.862,4.467 L 12.905,4.467 L 12.905,4.510 L 12.948,4.510 L 12.948,4.553 L 12.991,4.553 L 12.991,4.596 L 13.033,4.596 L 13.033,4.638 L 13.076,4.638 L 13.076,4.724 L 13.119,4.724 L 13.119,4.895 L 13.162,4.895 L 13.162,5.065 L 13.204,5.065 L 13.204,5.194 L 13.247,5.194 L 13.247,5.365 L 13.290,5.365 L 13.290,5.493 L 13.332,5.493 L 13.332,5.664 L 13.375,5.664 L 13.375,5.792 L 13.418,5.792 L 13.418,5.963 L 13.461,5.963 L 13.461,6.091 L 13.503,6.091 L 13.503,6.262 L 13.546,6.262 L 13.546,6.390 L 13.589,6.390 L 13.589,6.518 L 13.631,6.518 L 13.631,6.646 L 13.674,6.646 L 13.674,6.774 L 13.717,6.774 L 13.717,6.945 L 13.760,6.945 L 13.760,7.073 L 13.802,7.073 L 13.802,7.202 L 13.845,7.202 L 13.845,7.330 L 13.888,7.330 L 13.888,7.458 L 13.931,7.458 L 13.931,7.586 L 13.973,7.586 L 13.973,7.714 L 14.016,7.714 L 14.016,7.800 L 14.059,7.800 L 14.059,7.928 L 14.101,7.928 L 14.101,8.056 L 14.144,8.056 L 14.144,8.184 L 14.187,8.184 L 14.187,8.312 L 14.230,8.312 L 14.230,8.398 L 14.272,8.398 L 14.272,8.526 L 14.315,8.526 L 14.315,8.654 L 14.358,8.654 L 14.358,8.782 L 14.400,8.782 L 14.400,8.868 L 14.443,8.868 L 14.443,8.996 L 14.486,8.996 L 14.486,9.081 L 14.529,9.081 L 14.529,9.210 L 14.571,9.210 L 14.571,9.338 L 14.614,9.338 L 14.614,9.423 L 14.657,9.423 L 14.657,9.551 L 14.700,9.551 L 14.700,9.637 L 14.742,9.637 L 14.742,9.722 L 14.785,9.722 L 14.785,9.850 L 14.828,9.850 L 14.828,9.936 L 14.870,9.936 L 14.870,10.064 L 14.913,10.064 L 14.913,10.150 L 14.956,10.150 L 14.956,10.235 L 14.999,10.235 L 14.999,10.363 L 15.041,10.363 L 15.041,10.449 L 15.084,10.449 L 15.084,10.534 L 15.127,10.534 L 15.127,10.662 L 15.169,10.662 L 15.169,10.748 L 15.212,10.748 L 15.212,10.833 L 15.255,10.833 L 15.255,10.876 L 15.298,10.876 L 15.298,10.961 L 15.340,10.961 L 15.340,11.004 L 15.383,11.004 L 15.383,10.961 L 15.426,10.961 L 15.426,10.919 L 15.469,10.919 L 15.469,10.662 L 15.511,10.662 L 15.511,10.363 L 15.554,10.363 L 15.554,10.021 L 15.597,10.021 L 15.597,9.850 L 15.554,9.850 L 15.554,9.808 L 15.511,9.808 L 15.511,9.765 L 15.469,9.765 L 15.469,9.722 L 15.383,9.722 L 15.383,9.680 L 15.340,9.680 L 15.340,9.637 L 15.298,9.637 L 15.298,9.509 L 15.255,9.509 L 15.255,9.466 L 15.298,9.466 L 15.298,9.167 L 15.340,9.167 L 15.340,8.953 L 15.383,8.953 L 15.383,8.868 L 15.469,8.868 L 15.469,8.825 L 15.554,8.825 L 15.554,8.782 L 15.639,8.782 L 15.639,8.740 L 15.725,8.740 L 15.725,8.441 L 15.682,8.441 L 15.682,8.355 L 15.639,8.355 L 15.639,8.270 L 15.597,8.270 L 15.597,8.184 L 15.554,8.184 L 15.554,8.099 L 15.511,8.099 L 15.511,8.056 L 15.469,8.056 L 15.469,7.971 L 15.426,7.971 L 15.426,7.885 L 15.383,7.885 L 15.383,7.800 L 15.340,7.800 L 15.340,7.714 L 15.298,7.714 L 15.298,7.672 L 15.255,7.672 L 15.255,7.586 L 15.212,7.586 L 15.212,7.501 L 15.169,7.501 L 15.169,7.458 L 15.127,7.458 L 15.127,7.373 L 15.084,7.373 L 15.084,7.287 L 15.041,7.287 L 15.041,7.202 L 14.999,7.202 L 14.999,7.159 L 14.956,7.159 L 14.956,7.073 L 14.913,7.073 L 14.913,6.988 L 14.870,6.988 L 14.870,6.903 L 14.828,6.903 L 14.828,6.860 L 14.785,6.860 L 14.785,6.604 L 14.828,6.604 L 14.828,6.561 L 14.870,6.561 L 14.870,6.518 L 14.913,6.518 L 14.913,6.475 L 14.956,6.475 L 14.956,6.433 L 14.999,6.433 L 14.999,6.347 L 15.041,6.347 L 15.041,6.304 L 15.084,6.304 L 15.084,6.262 L 15.127,6.262 L 15.127,6.219 L 15.169,6.219 L 15.169,6.176 L 15.212,6.176 L 15.212,6.134 L 15.255,6.134 L 15.255,6.091 L 15.298,6.091 L 15.298,6.048 L 15.340,6.048 L 15.340,5.963 L 15.383,5.963 L 15.383,5.920 L 15.426,5.920 L 15.426,5.877 L 15.469,5.877 L 15.469,5.835 L 15.511,5.835 L 15.511,5.792 L 15.554,5.792 L 15.554,5.749 L 15.597,5.749 L 15.597,5.706 L 15.639,5.706 L 15.639,5.621 L 15.682,5.621 L 15.682,5.578 L 15.725,5.578 L 15.725,5.535 L 15.768,5.535 L 15.768,5.493 L 15.810,5.493 L 15.810,5.450 L 15.853,5.450 L 15.853,5.407 L 15.896,5.407 L 15.896,5.365 L 15.938,5.365 L 15.938,5.279 L 15.981,5.279 L 15.981,5.236 L 16.024,5.236 L 16.024,5.194 L 16.067,5.194 L 16.067,5.151 L 16.109,5.151 L 16.109,5.108 L 16.152,5.108 L 16.152,5.065 L 16.195,5.065 L 16.195,5.023 L 16.238,5.023 L 16.238,4.980 L 16.280,4.980 L 16.280,4.895 L 16.323,4.895 L 16.323,4.852 L 16.366,4.852 L 16.366,4.809 L 16.408,4.809 L 16.408,4.766 L 16.451,4.766 L 16.451,4.724 L 16.494,4.724 L 16.494,4.681 L 16.537,4.681 L 16.537,4.638 L 16.579,4.638 L 16.579,4.596 L 16.622,4.596 L 16.622,4.510 L 16.665,4.510 L 16.665,4.467 L 16.708,4.467 L 16.708,4.425 L 16.750,4.425 L 16.750,4.382 L 16.793,4.382 L 16.793,4.339 L 16.836,4.339 L 16.836,4.296 L 16.878,4.296 L 16.878,4.254 L 16.921,4.254 L 16.921,4.211 L 16.964,4.211 L 16.964,4.168 L 17.007,4.168 L 17.007,4.126 L 17.135,4.126 L 17.135,4.168 L 17.220,4.168 L 17.220,4.254 L 17.263,4.254 L 17.263,4.296 L 17.306,4.296 L 17.306,4.382 L 17.348,4.382 L 17.348,4.425 L 17.391,4.425 L 17.391,4.510 L 17.434,4.510 L 17.434,4.553 L 17.477,4.553 L 17.477,4.638 L 17.519,4.638 L 17.519,4.681 L 17.562,4.681 L 17.562,4.724 L 17.605,4.724 L 17.605,4.809 L 17.647,4.809 L 17.647,4.852 L 17.690,4.852 L 17.690,4.937 L 17.733,4.937 L 17.733,4.980 L 17.776,4.980 L 17.776,5.065 L 17.818,5.065 L 17.818,5.108 L 17.861,5.108 L 17.861,5.194 L 17.904,5.194 L 17.904,5.236 L 17.946,5.236 L 17.946,5.322 L 17.989,5.322 L 17.989,5.365 L 18.032,5.365 L 18.032,5.450 L 18.075,5.450 L 18.075,5.493 L 18.117,5.493 L 18.117,5.535 L 18.160,5.535 L 18.160,5.621 L 18.203,5.621 L 18.203,5.664 L 18.246,5.664 L 18.246,5.749 L 18.288,5.749 L 18.288,5.792 L 18.331,5.792 L 18.331,5.877 L 18.374,5.877 L 18.374,5.920 L 18.416,5.920 L 18.416,6.005 L 18.459,6.005 L 18.459,6.048 L 18.502,6.048 L 18.502,6.134 L 18.545,6.134 L 18.545,6.176 L 18.587,6.176 L 18.587,6.262 L 18.630,6.262 L 18.630,6.304 L 18.673,6.304 L 18.673,6.347 L 18.715,6.347 L 18.715,6.433 L 18.758,6.433 L 18.758,6.475 L 18.801,6.475 L 18.801,6.561 L 18.844,6.561 L 18.844,6.604 L 18.886,6.604 L 18.886,6.689 L 18.929,6.689 L 18.929,6.732 L 18.972,6.732 L 18.972,6.817 L 19.015,6.817 L 19.015,6.860 L 19.057,6.860 L 19.057,6.945 L 19.100,6.945 L 19.100,7.073 L 19.057,7.073 L 19.057,7.116 L 19.015,7.116 L 19.015,7.159 L 18.972,7.159 L 18.972,7.202 L 18.929,7.202 L 18.929,7.287 L 18.886,7.287 L 18.886,7.330 L 18.844,7.330 L 18.844,7.373 L 18.801,7.373 L 18.801,7.415 L 18.758,7.415 L 18.758,7.458 L 18.715,7.458 L 18.715,7.501 L 18.673,7.501 L 18.673,7.586 L 18.630,7.586 L 18.630,7.629 L 18.587,7.629 L 18.587,7.672 L 18.545,7.672 L 18.545,7.714 L 18.502,7.714 L 18.502,7.757 L 18.459,7.757 L 18.459,7.800 L 18.416,7.800 L 18.416,7.885 L 18.374,7.885 L 18.374,7.928 L 18.331,7.928 L 18.331,7.971 L 18.288,7.971 L 18.288,8.013 L 18.246,8.013 L 18.246,8.056 L 18.203,8.056 L 18.203,8.099 L 18.160,8.099 L 18.160,8.184 L 18.117,8.184 L 18.117,8.227 L 18.075,8.227 L 18.075,8.270 L 18.032,8.270 L 18.032,8.312 L 17.989,8.312 L 17.989,8.355 L 17.946,8.355 L 17.946,8.398 L 17.904,8.398 L 17.904,8.483 L 17.861,8.483 L 17.861,8.526 L 17.818,8.526 L 17.818,8.569 L 17.776,8.569 L 17.776,8.612 L 17.733,8.612 L 17.733,8.654 L 17.690,8.654 L 17.690,8.740 L 17.647,8.740 L 17.647,8.868 L 17.605,8.868 L 17.605,8.953 L 17.647,8.953 L 17.647,8.996 L 17.690,8.996 L 17.690,9.039 L 17.733,9.039 L 17.733,9.081 L 17.818,9.081 L 17.818,9.124 L 17.861,9.124 L 17.861,9.167 L 17.904,9.167 L 17.904,9.210 L 17.946,9.210 L 17.946,9.423 L 17.904,9.423 L 17.904,9.680 L 17.861,9.680 L 17.861,9.893 L 17.818,9.893 L 17.818,9.936 L 17.776,9.936 L 17.776,9.979 L 17.690,9.979 L 17.690,10.021 L 17.562,10.021 L 17.562,10.064 L 17.477,10.064 L 17.477,10.150 L 17.434,10.150 L 17.434,10.278 L 17.391,10.278 L 17.391,10.577 L 17.348,10.577 L 17.348,10.919 L 17.306,10.919 L 17.306,11.260 L 17.263,11.260 L 17.263,11.602 L 17.220,11.602 L 17.220,11.816 L 17.263,11.816 L 17.263,11.901 L 17.306,11.901 L 17.306,11.944 L 17.391,11.944 L 17.391,11.987 L 17.477,11.987 L 17.477,12.029 L 17.605,12.029 L 17.605,12.072 L 17.690,12.072 L 17.690,12.115 L 17.818,12.115 L 17.818,12.158 L 17.946,12.158 L 17.946,12.200 L 18.032,12.200 L 18.032,12.243 L 18.117,12.243 L 18.117,12.328 L 18.160,12.328 L 18.160,12.457 L 18.117,12.457 L 18.117,12.499 L 18.075,12.499 L 18.075,12.585 L 18.032,12.585 L 18.032,12.627 L 17.989,12.627 L 17.989,12.670 L 17.946,12.670 L 17.946,12.756 L 17.904,12.756 L 17.904,12.798 L 17.861,12.798 L 17.861,12.884 L 17.818,12.884 L 17.818,12.927 L 17.776,12.927 L 17.776,12.969 L 17.733,12.969 L 17.733,13.055 L 17.690,13.055 L 17.690,13.097 L 17.647,13.097 L 17.647,13.183 L 17.605,13.183 L 17.605,13.226 L 17.562,13.226 L 17.562,13.268 L 17.519,13.268 L 17.519,13.354 L 17.477,13.354 L 17.477,13.396 L 17.434,13.396 L 17.434,13.482 L 17.391,13.482 L 17.391,13.525 L 17.348,13.525 L 17.348,13.567 L 17.306,13.567 L 17.306,13.653 L 17.263,13.653 L 17.263,13.696 L 17.220,13.696 L 17.220,13.781 L 17.177,13.781 L 17.177,13.824 L 17.135,13.824 L 17.135,13.909 L 17.092,13.909 L 17.092,13.952 L 17.049,13.952 L 17.049,13.995 L 17.007,13.995 L 17.007,14.080 L 16.964,14.080 L 16.964,14.123 L 16.921,14.123 L 16.921,14.208 L 16.878,14.208 L 16.878,14.251 L 16.836,14.251 L 16.836,14.336 L 16.793,14.336 L 16.793,14.379 L 16.750,14.379 L 16.750,14.465 L 16.708,14.465 L 16.708,14.507 L 16.665,14.507 L 16.665,14.550 L 16.622,14.550 L 16.622,14.635 L 16.579,14.635 L 16.579,14.678 L 16.537,14.678 L 16.537,14.764 L 16.494,14.764 L 16.494,14.806 L 16.451,14.806 L 16.451,14.892 L 16.408,14.892 L 16.408,14.935 L 16.366,14.935 L 16.366,15.020 L 16.323,15.020 L 16.323,15.063 L 16.280,15.063 L 16.280,15.105 L 16.323,15.105 L 16.323,15.148 L 16.408,15.148 L 16.408,15.191 L 16.494,15.191 L 16.494,15.234 L 16.579,15.234 L 16.579,15.276 L 16.665,15.276 L 16.665,15.319 L 16.750,15.319 L 16.750,15.362 L 16.836,15.362 L 16.836,15.404 L 16.921,15.404 L 16.921,15.447 L 16.964,15.447 L 16.964,15.490 L 17.049,15.490 L 17.049,15.533 L 17.135,15.533 L 17.135,15.575 L 17.220,15.575 L 17.220,15.618 L 17.263,15.618 L 17.263,15.661 L 17.348,15.661 L 17.348,15.704 L 17.434,15.704 L 17.434,15.746 L 17.477,15.746 L 17.477,15.789 L 17.562,15.789 L 17.562,15.832 L 17.605,15.832 L 17.605,15.874 L 17.690,15.874 L 17.690,15.917 L 17.733,15.917 L 17.733,15.960 L 17.818,15.960 L 17.818,16.003 L 17.861,16.003 L 17.861,16.045 L 17.904,16.045 L 17.904,16.216 L 17.861,16.216 L 17.861,16.302 L 17.818,16.302 L 17.818,16.344 L 17.776,16.344 L 17.776,16.387 L 17.733,16.387 L 17.733,16.430 L 17.690,16.430 L 17.690,16.473 L 17.647,16.473 L 17.647,16.558 L 17.605,16.558 L 17.605,16.601 L 17.562,16.601 L 17.562,16.643 L 17.519,16.643 L 17.519,16.686 L 17.477,16.686 L 17.477,16.729 L 17.434,16.729 L 17.434,16.814 L 17.391,16.814 L 17.391,16.857 L 17.348,16.857 L 17.348,16.900 L 17.306,16.900 L 17.306,16.942 L 17.263,16.942 L 17.263,16.985 L 17.220,16.985 L 17.220,17.071 L 17.177,17.071 L 17.177,17.113 L 17.135,17.113 L 17.135,17.156 L 17.092,17.156 L 17.092,17.199 L 17.049,17.199 L 17.049,17.242 L 17.007,17.242 L 17.007,17.284 L 16.964,17.284 L 16.964,17.370 L 16.921,17.370 L 16.921,17.412 L 16.878,17.412 L 16.878,17.455 L 16.836,17.455 L 16.836,17.498 L 16.793,17.498 L 16.793,17.541 L 16.750,17.541 L 16.750,17.626 L 16.708,17.626 L 16.708,17.669 L 16.665,17.669 L 16.665,17.712 L 16.622,17.712 L 16.622,17.754 L 16.579,17.754 L 16.579,17.797 L 16.537,17.797 L 16.537,17.840 L 16.494,17.840 L 16.494,17.925 L 16.451,17.925 L 16.451,17.968 L 16.408,17.968 L 16.408,18.011 L 16.323,18.011 L 16.323,18.053 L 9.786,18.053 L 9.786,17.968 L 9.829,17.968 L 9.829,17.882 L 9.872,17.882 L 9.872,17.754 L 9.915,17.754 L 9.915,17.669 L 9.957,17.669 L 9.957,17.541 L 10.000,17.541 L 10.000,17.455 L 10.043,17.455 L 10.043,17.370 L 10.085,17.370 L 10.085,17.242 L 10.128,17.242 L 10.128,17.156 L 10.171,17.156 L 10.171,17.028 L 10.214,17.028 L 10.214,16.942 L 10.256,16.942 L 10.256,16.814 L 10.299,16.814 L 10.299,16.729 L 10.342,16.729 L 10.342,16.601 L 10.385,16.601 L 10.385,16.473 L 10.427,16.473 L 10.427,16.387 L 10.470,16.387 L 10.470,16.259 L 10.513,16.259 L 10.513,16.131 L 10.555,16.131 L 10.555,16.003 L 10.598,16.003 L 10.598,15.917 L 10.641,15.917 L 10.641,15.789 L 10.684,15.789 L 10.684,15.704 L 10.726,15.704 L 10.726,15.661 L 10.769,15.661 L 10.769,15.618 L 10.812,15.618 L 10.812,15.575 L 10.897,15.575 L 10.897,15.533 L 10.983,15.533 L 10.983,15.490 L 11.025,15.490 L 11.025,15.447 L 11.111,15.447 L 11.111,15.404 L 11.196,15.404 L 11.196,15.362 L 11.239,15.362 L 11.239,15.319 L 11.324,15.319 L 11.324,15.276 L 11.367,15.276 L 11.367,15.234 L 11.453,15.234 L 11.453,15.191 L 11.495,15.191 L 11.495,15.148 L 11.581,15.148 L 11.581,15.105 L 11.623,15.105 L 11.623,15.063 L 11.709,15.063 L 11.709,15.020 L 11.752,15.020 L 11.752,14.977 L 11.837,14.977 L 11.837,14.935 L 11.880,14.935 L 11.880,14.892 L 11.965,14.892 L 11.965,14.849 L 12.008,14.849 L 12.008,14.806 L 12.051,14.806 L 12.051,14.764 L 12.136,14.764 L 12.136,14.721 L 12.179,14.721 L 12.179,14.678 L 12.222,14.678 L 12.222,14.635 L 12.307,14.635 L 12.307,14.593 L 12.350,14.593 L 12.350,14.550 L 12.392,14.550 L 12.392,14.507 L 12.478,14.507 L 12.478,14.465 L 12.521,14.465 L 12.521,14.422 L 12.563,14.422 L 12.563,14.379 L 12.649,14.379 L 12.649,14.336 L 12.692,14.336 L 12.692,14.294 L 12.734,14.294 L 12.734,14.251 L 12.777,14.251 L 12.777,14.208 L 12.862,14.208 L 12.862,14.165 L 12.905,14.165 L 12.905,14.123 L 12.948,14.123 L 12.948,14.080 L 12.991,14.080 L 12.991,14.037 L 13.033,14.037 L 13.033,13.995 L 13.076,13.995 L 13.076,13.952 L 13.119,13.952 L 13.119,13.909 L 13.204,13.909 L 13.204,13.866 L 13.247,13.866 L 13.247,13.824 L 13.290,13.824 L 13.290,13.781 L 13.332,13.781 L 13.332,13.738 L 13.375,13.738 L 13.375,13.696 L 13.418,13.696 L 13.418,13.653 L 13.461,13.653 L 13.461,13.610 L 13.503,13.610 L 13.503,13.567 L 13.546,13.567 L 13.546,13.525 L 13.589,13.525 L 13.589,13.482 L 13.631,13.482 L 13.631,13.439 L 13.674,13.439 L 13.674,13.396 L 13.717,13.396 L 13.717,13.354 L 13.760,13.354 L 13.760,13.311 L 13.802,13.311 L 13.802,13.268 L 13.845,13.268 L 13.845,13.226 L 13.888,13.226 L 13.888,13.183 L 13.931,13.183 L 13.931,13.140 L 13.973,13.140 L 13.973,13.097 L 14.016,13.097 L 14.016,13.055 L 14.059,13.055 L 14.059,13.012 L 14.101,13.012 L 14.101,12.969 L 14.144,12.969 L 14.144,12.927 L 14.187,12.927 L 14.187,12.884 L 14.230,12.884 L 14.230,12.841 L 14.272,12.841 L 14.272,12.798 L 14.315,12.798 L 14.315,12.756 L 14.358,12.756 L 14.358,12.713 L 14.400,12.713 L 14.400,12.670 L 14.443,12.670 L 14.443,12.627 L 14.486,12.627 L 14.486,12.585 L 14.529,12.585 L 14.529,12.542 L 14.571,12.542 L 14.571,12.457 L 14.614,12.457 L 14.614,12.414 L 14.657,12.414 L 14.657,12.243 L 14.614,12.243 L 14.614,12.158 L 14.571,12.158 L 14.571,12.072 L 14.529,12.072 L 14.529,11.987 L 14.486,11.987 L 14.486,11.901 L 14.443,11.901 L 14.443,11.816 L 14.400,11.816 L 14.400,11.730 L 14.358,11.730 L 14.358,11.645 L 14.315,11.645 L 14.315,11.559 L 14.272,11.559 L 14.272,11.474 L 14.230,11.474 L 14.230,11.388 L 14.187,11.388 L 14.187,11.303 L 14.144,11.303 L 14.144,11.218 L 14.101,11.218 L 14.101,11.132 L 14.059,11.132 L 14.059,11.089 L 14.016,11.089 L 14.016,11.004 L 13.973,11.004 L 13.973,10.919 L 13.931,10.919 L 13.931,10.833 L 13.888,10.833 L 13.888,10.748 L 13.845,10.748 L 13.845,10.662 L 13.802,10.662 L 13.802,10.619 L 13.760,10.619 L 13.760,10.534 L 13.717,10.534 L 13.717,10.449 L 13.674,10.449 L 13.674,10.363 L 13.631,10.363 L 13.631,10.278 L 13.589,10.278 L 13.589,10.192 L 13.546,10.192 L 13.546,10.150 L 13.503,10.150 L 13.503,10.064 L 13.461,10.064 L 13.461,9.979 L 13.418,9.979 L 13.418,9.893 L 13.375,9.893 L 13.375,9.808 L 13.332,9.808 L 13.332,9.722 L 13.290,9.722 L 13.290,9.680 L 13.247,9.680 L 13.247,9.594 L 13.204,9.594 L 13.204,9.509 L 13.162,9.509 L 13.162,9.423 L 13.119,9.423 L 13.119,9.338 L 13.076,9.338 L 13.076,9.295 L 13.033,9.295 L 13.033,9.210 L 12.991,9.210 L 12.991,9.124 L 12.948,9.124 L 12.948,9.039 L 12.905,9.039 L 12.905,8.996 L 12.862,8.996 L 12.862,8.911 L 12.820,8.911 L 12.820,8.825 L 12.777,8.825 L 12.777,8.782 L 12.734,8.782 L 12.734,8.697 L 12.692,8.697 L 12.692,8.612 L 12.649,8.612 L 12.649,8.569 L 12.606,8.569 L 12.606,8.483 L 12.563,8.483 L 12.563,8.441 L 12.521,8.441 L 12.521,8.355 L 12.478,8.355 L 12.478,8.312 L 12.435,8.312 L 12.435,8.227 L 12.392,8.227 L 12.392,8.184 L 12.350,8.184 L 12.350,8.099 L 12.307,8.099 L 12.307,8.056 L 12.264,8.056 L 12.264,7.971 L 12.222,7.971 L 12.222,7.928 L 12.179,7.928 L 12.179,7.842 L 12.136,7.842 L 12.136,7.800 L 12.093,7.800 L 12.093,7.714 L 12.051,7.714 L 12.051,7.672 L 12.008,7.672 L 12.008,7.629 L 11.965,7.629 L 11.965,7.543 L 11.923,7.543 L 11.923,7.501 L 11.880,7.501 L 11.880,7.458 L 11.837,7.458 L 11.837,7.415 L 11.794,7.415 L 11.794,7.330 L 11.752,7.330 L 11.752,7.287 L 11.709,7.287 L 11.709,7.244 L 11.666,7.244 L 11.666,7.202 L 11.623,7.202 L 11.623,7.159 L 11.581,7.159 L 11.581,7.073 L 11.538,7.073 L 11.538,7.031 L 11.495,7.031 L 11.495,6.988 L 11.453,6.988 L 11.453,6.945 L 11.410,6.945 L 11.410,6.903 L 11.367,6.903 L 11.367,6.860 L 11.324,6.860 L 11.324,6.817 L 11.282,6.817 L 11.282,6.774 L 11.239,6.774 L 11.239,6.732 L 11.196,6.732 L 11.196,6.689 L 11.154,6.689 L 11.154,6.646 L 11.111,6.646 L 11.111,6.604 L 11.068,6.604 L 11.068,6.561 L 11.025,6.561 L 11.025,6.518 L 10.983,6.518 L 10.983,6.475 L 10.940,6.475 L 10.940,6.433 L 10.897,6.433 L 10.897,6.390 L 10.812,6.390 L 10.812,6.347 L 10.769,6.347 L 10.769,6.304 L 10.726,6.304 L 10.726,6.262 L 10.684,6.262 L 10.684,6.219 L 10.641,6.219 L 10.641,6.176 L 10.598,6.176 L 10.598,6.134 L 10.513,6.134 L 10.513,6.091 L 10.470,6.091 L 10.470,6.048 L 10.427,6.048 L 10.427,6.005 L 10.385,6.005 L 10.385,5.963 L 10.299,5.963 L 10.299,5.920 L 10.256,5.920 L 10.256,5.877 L 10.214,5.877 L 10.214,5.835 L 10.128,5.835 L 10.128,5.792 L 10.085,5.792 L 10.085,5.749 L 10.043,5.749 L 10.043,5.706 L 9.957,5.706 L 9.957,5.664 L 9.915,5.664 L 9.915,5.621 L 9.829,5.621 L 9.829,5.578 L 9.786,5.578 L 9.786,5.535 L 9.701,5.535 L 9.701,5.493 L 9.658,5.493 L 9.658,5.450 L 9.445,5.450 L 9.445,5.493 L 9.359,5.493 L 9.359,5.535 L 9.274,5.535 L 9.274,5.578 L 9.231,5.578 L 9.231,5.621 L 9.146,5.621 L 9.146,5.664 L 9.103,5.664 L 9.103,5.706 L 9.060,5.706 L 9.060,5.749 L 8.975,5.749 L 8.975,5.792 L 8.932,5.792 L 8.932,5.835 L 8.846,5.835 L 8.846,5.877 L 8.804,5.877 L 8.804,5.920 L 8.761,5.920 L 8.761,5.963 L 8.718,5.963 L 8.718,6.005 L 8.633,6.005 L 8.633,6.048 L 8.590,6.048 L 8.590,6.091 L 8.547,6.091 L 8.547,6.134 L 8.505,6.134 L 8.505,6.176 L 8.419,6.176 L 8.419,6.219 L 8.377,6.219 L 8.377,6.262 L 8.334,6.262 L 8.334,6.304 L 8.291,6.304 L 8.291,6.347 L 8.248,6.347 L 8.248,6.390 L 8.206,6.390 L 8.206,6.433 L 8.163,6.433 L 8.163,6.475 L 8.120,6.475 L 8.120,6.518 L 8.035,6.518 L 8.035,6.561 L 7.992,6.561 L 7.992,6.604 L 7.949,6.604 L 7.949,6.646 L 7.907,6.646 L 7.907,6.689 L 7.864,6.689 L 7.864,6.732 L 7.821,6.732 L 7.821,6.774 L 7.778,6.774 L 7.778,6.817 L 7.736,6.817 L 7.736,6.860 L 7.693,6.860 L 7.693,6.903 L 7.650,6.903 L 7.650,6.945 L 7.608,6.945 L 7.608,7.031 L 7.565,7.031 L 7.565,7.073 L 7.522,7.073 L 7.522,7.116 L 7.479,7.116 L 7.479,7.159 L 7.437,7.159 L 7.437,7.202 L 7.394,7.202 L 7.394,7.244 L 7.351,7.244 L 7.351,7.287 L 7.308,7.287 L 7.308,7.373 L 7.266,7.373 L 7.266,7.415 L 7.223,7.415 L 7.223,7.458 L 7.180,7.458 L 7.180,7.501 L 7.138,7.501 L 7.138,7.586 L 7.095,7.586 L 7.095,7.629 L 7.052,7.629 L 7.052,7.672 L 7.009,7.672 L 7.009,7.757 L 6.967,7.757 L 6.967,7.800 L 6.924,7.800 L 6.924,7.885 L 6.881,7.885 L 6.881,7.928 L 6.838,7.928 L 6.838,7.971 L 6.796,7.971 L 6.796,8.056 L 6.753,8.056 L 6.753,8.099 L 6.710,8.099 L 6.710,8.184 L 6.668,8.184 L 6.668,8.227 L 6.625,8.227 L 6.625,8.312 L 6.582,8.312 L 6.582,8.398 L 6.539,8.398 L 6.539,8.441 L 6.497,8.441 L 6.497,8.526 L 6.454,8.526 L 6.454,8.569 L 6.411,8.569 L 6.411,8.654 L 6.369,8.654 L 6.369,8.740 L 6.326,8.740 L 6.326,8.782 L 6.283,8.782 L 6.283,8.868 L 6.240,8.868 L 6.240,8.911 L 6.198,8.911 L 6.198,8.996 L 6.155,8.996 L 6.155,9.081 L 6.112,9.081 L 6.112,9.167 L 6.069,9.167 L 6.069,9.210 L 6.027,9.210 L 6.027,9.295 L 5.984,9.295 L 5.984,9.381 L 5.941,9.381 L 5.941,9.466 L 5.899,9.466 L 5.899,9.509 L 5.856,9.509 L 5.856,9.594 L 5.813,9.594 L 5.813,9.680 L 5.770,9.680 L 5.770,9.765 L 5.728,9.765 L 5.728,9.850 L 5.685,9.850 L 5.685,9.936 L 5.642,9.936 L 5.642,9.979 L 5.600,9.979 L 5.600,10.064 L 5.557,10.064 L 5.557,10.150 L 5.514,10.150 L 5.514,10.235 L 5.471,10.235 L 5.471,10.320 L 5.429,10.320 L 5.429,10.406 L 5.386,10.406 L 5.386,10.449 L 5.343,10.449 L 5.343,10.534 L 5.300,10.534 L 5.300,10.619 L 5.258,10.619 L 5.258,10.705 L 5.215,10.705 L 5.215,10.790 L 5.172,10.790 L 5.172,10.876 L 5.130,10.876 L 5.130,10.919 L 5.087,10.919 L 5.087,11.004 L 5.044,11.004 L 5.044,11.089 L 5.001,11.089 L 5.001,11.175 L 4.959,11.175 L 4.959,11.260 L 4.916,11.260 L 4.916,11.346 L 4.873,11.346 L 4.873,11.431 L 4.831,11.431 L 4.831,11.517 L 4.788,11.517 L 4.788,11.559 L 4.745,11.559 L 4.745,11.688 L 4.702,11.688 L 4.702,11.730 L 4.660,11.730 L 4.660,11.816 L 4.617,11.816 L 4.617,11.901 L 4.574,11.901 L 4.574,11.987 L 4.531,11.987 L 4.531,12.072 L 4.489,12.072 L 4.489,12.158 L 4.446,12.158 L 4.446,12.243 L 4.403,12.243 L 4.403,12.414 L 4.446,12.414 L 4.446,12.457 L 4.489,12.457 L 4.489,12.499 L 4.531,12.499 L 4.531,12.542 L 4.574,12.542 L 4.574,12.627 L 4.617,12.627 L 4.617,12.670 L 4.660,12.670 L 4.660,12.713 L 4.702,12.713 L 4.702,12.756 L 4.745,12.756 L 4.745,12.798 L 4.788,12.798 L 4.788,12.841 L 4.831,12.841 L 4.831,12.884 L 4.873,12.884 L 4.873,12.927 L 4.916,12.927 L 4.916,12.969 L 4.959,12.969 L 4.959,13.012 L 5.001,13.012 L 5.001,13.055 L 5.044,13.055 L 5.044,13.097 L 5.087,13.097 L 5.087,13.140 L 5.130,13.140 L 5.130,13.183 L 5.172,13.183 L 5.172,13.226 L 5.215,13.226 L 5.215,13.268 L 5.258,13.268 L 5.258,13.311 L 5.300,13.311 L 5.300,13.354 L 5.343,13.354 L 5.343,13.396 L 5.386,13.396 L 5.386,13.439 L 5.429,13.439 L 5.429,13.482 L 5.471,13.482 L 5.471,13.525 L 5.514,13.525 L 5.514,13.567 L 5.557,13.567 L 5.557,13.610 L 5.600,13.610 L 5.600,13.653 L 5.642,13.653 L 5.642,13.696 L 5.685,13.696 L 5.685,13.738 L 5.728,13.738 L 5.728,13.781 L 5.770,13.781 L 5.770,13.824 L 5.856,13.824 L 5.856,13.866 L 5.899,13.866 L 5.899,13.909 L 5.941,13.909 L 5.941,13.952 L 5.984,13.952 L 5.984,13.995 L 6.027,13.995 L 6.027,14.037 L 6.069,14.037 L 6.069,14.080 L 6.112,14.080 L 6.112,14.123 L 6.198,14.123 L 6.198,14.165 L 6.240,14.165 L 6.240,14.208 L 6.283,14.208 L 6.283,14.251 L 6.326,14.251 L 6.326,14.294 L 6.369,14.294 L 6.369,14.336 L 6.454,14.336 L 6.454,14.379 L 6.497,14.379 L 6.497,14.422 L 6.539,14.422 L 6.539,14.465 L 6.625,14.465 L 6.625,14.507 L 6.668,14.507 L 6.668,14.550 L 6.710,14.550 L 6.710,14.593 L 6.753,14.593 L 6.753,14.635 L 6.838,14.635 L 6.838,14.678 L 6.881,14.678 L 6.881,14.721 L 6.967,14.721 L 6.967,14.764 L 7.009,14.764 L 7.009,14.806 L 7.052,14.806 L 7.052,14.849 L 7.138,14.849 L 7.138,14.892 L 7.180,14.892 L 7.180,14.935 L 7.266,14.935 L 7.266,14.977 L 7.308,14.977 L 7.308,15.020 L 7.394,15.020 L 7.394,15.063 L 7.437,15.063 L 7.437,15.105 L 7.522,15.105 L 7.522,15.148 L 7.565,15.148 L 7.565,15.191 L 7.608,15.191 L 7.608,15.234 L 7.693,15.234 L 7.693,15.276 L 7.778,15.276 L 7.778,15.319 L 7.821,15.319 L 7.821,15.362 L 7.907,15.362 L 7.907,15.404 L 7.949,15.404 L 7.949,15.447 L 8.035,15.447 L 8.035,15.490 L 8.077,15.490 L 8.077,15.533 L 8.163,15.533 L 8.163,15.575 L 8.248,15.575 L 8.248,15.618 L 8.334,15.618 L 8.334,15.661 L 8.377,15.661 L 8.377,15.746 L 8.419,15.746 L 8.419,15.874 L 8.462,15.874 L 8.462,16.003 L 8.505,16.003 L 8.505,16.131 L 8.547,16.131 L 8.547,16.216 L 8.590,16.216 L 8.590,16.344 L 8.633,16.344 L 8.633,16.473 L 8.676,16.473 L 8.676,16.558 L 8.718,16.558 L 8.718,16.686 L 8.761,16.686 L 8.761,16.772 L 8.804,16.772 L 8.804,16.900 L 8.846,16.900 L 8.846,16.985 L 8.889,16.985 L 8.889,17.113 L 8.932,17.113 L 8.932,17.242 L 8.975,17.242 L 8.975,17.327 L 9.017,17.327 L 9.017,17.455 L 9.060,17.455 L 9.060,17.541 L 9.103,17.541 L 9.103,17.626 L 9.146,17.626 L 9.146,17.754 L 9.188,17.754 L 9.188,17.840 L 9.231,17.840 L 9.231,17.968 L 9.274,17.968 L 9.274,18.053 L 2.737,18.053 L 2.737,18.011 L 2.652,18.011 L 2.652,17.925 L 2.609,17.925 L 2.609,17.882 L 2.566,17.882 L 2.566,17.840 L 2.523,17.840 L 2.523,17.797 L 2.481,17.797 L 2.481,17.754 L 2.438,17.754 L 2.438,17.669 L 2.395,17.669 L 2.395,17.626 L 2.353,17.626 L 2.353,17.583 L 2.310,17.583 L 2.310,17.541 L 2.267,17.541 L 2.267,17.498 L 2.224,17.498 L 2.224,17.455 L 2.182,17.455 L 2.182,17.370 L 2.139,17.370 L 2.139,17.327 L 2.096,17.327 L 2.096,17.284 L 2.054,17.284 L 2.054,17.242 L 2.011,17.242 L 2.011,17.199 L 1.968,17.199 L 1.968,17.156 L 1.925,17.156 L 1.925,17.071 L 1.883,17.071 L 1.883,17.028 L 1.840,17.028 L 1.840,16.985 L 1.797,16.985 L 1.797,16.942 L 1.754,16.942 L 1.754,16.900 L 1.712,16.900 L 1.712,16.857 L 1.669,16.857 L 1.669,16.772 L 1.626,16.772 L 1.626,16.729 L 1.584,16.729 L 1.584,16.686 L 1.541,16.686 L 1.541,16.643 L 1.498,16.643 L 1.498,16.601 L 1.455,16.601 L 1.455,16.515 L 1.413,16.515 L 1.413,16.473 L 1.370,16.473 L 1.370,16.430 L 1.327,16.430 L 1.327,16.387 L 1.285,16.387 L 1.285,16.344 L 1.242,16.344 L 1.242,16.302 L 1.199,16.302 L 1.199,16.216 L 1.156,16.216 L 1.156,16.045 L 1.199,16.045 L 1.199,16.003 L 1.242,16.003 L 1.242,15.960 L 1.327,15.960 L 1.327,15.917 L 1.370,15.917 L 1.370,15.874 L 1.455,15.874 L 1.455,15.832 L 1.498,15.832 L 1.498,15.789 L 1.584,15.789 L 1.584,15.746 L 1.669,15.746 L 1.669,15.704 L 1.712,15.704 L 1.712,15.661 L 1.797,15.661 L 1.797,15.618 L 1.883,15.618 L 1.883,15.575 L 1.925,15.575 L 1.925,15.533 L 2.011,15.533 L 2.011,15.490 L 2.096,15.490 L 2.096,15.447 L 2.182,15.447 L 2.182,15.404 L 2.267,15.404 L 2.267,15.362 L 2.310,15.362 L 2.310,15.319 L 2.395,15.319 L 2.395,15.276 L 2.481,15.276 L 2.481,15.234 L 2.566,15.234 L 2.566,15.191 L 2.652,15.191 L 2.652,15.148 L 2.737,15.148 L 2.737,15.105 L 2.780,15.105 L 2.780,15.063 L 2.737,15.063 L 2.737,14.977 L 2.694,14.977 L 2.694,14.935 L 2.652,14.935 L 2.652,14.849 L 2.609,14.849 L 2.609,14.806 L 2.566,14.806 L 2.566,14.721 L 2.523,14.721 L 2.523,14.678 L 2.481,14.678 L 2.481,14.593 L 2.438,14.593 L 2.438,14.550 L 2.395,14.550 L 2.395,14.465 L 2.353,14.465 L 2.353,14.422 L 2.310,14.422 L 2.310,14.379 L 2.267,14.379 L 2.267,14.294 L 2.224,14.294 L 2.224,14.251 L 2.182,14.251 L 2.182,14.165 L 2.139,14.165 L 2.139,14.123 L 2.096,14.123 L 2.096,14.037 L 2.054,14.037 L 2.054,13.995 L 2.011,13.995 L 2.011,13.952 L 1.968,13.952 L 1.968,13.866 L 1.925,13.866 L 1.925,13.824 L 1.883,13.824 L 1.883,13.738 L 1.840,13.738 L 1.840,13.696 L 1.797,13.696 L 1.797,13.653 L 1.754,13.653 L 1.754,13.567 L 1.712,13.567 L 1.712,13.525 L 1.669,13.525 L 1.669,13.439 L 1.626,13.439 L 1.626,13.396 L 1.584,13.396 L 1.584,13.354 L 1.541,13.354 L 1.541,13.268 L 1.498,13.268 L 1.498,13.226 L 1.455,13.226 L 1.455,13.140 L 1.413,13.140 L 1.413,13.097 L 1.370,13.097 L 1.370,13.055 L 1.327,13.055 L 1.327,12.969 L 1.285,12.969 L 1.285,12.927 L 1.242,12.927 L 1.242,12.841 L 1.199,12.841 L 1.199,12.798 L 1.156,12.798 L 1.156,12.756 L 1.114,12.756 L 1.114,12.670 L 1.071,12.670 L 1.071,12.627 L 1.028,12.627 L 1.028,12.585 L 0.985,12.585 L 0.985,12.499 L 0.943,12.499 L 0.943,12.457 L 0.900,12.457 Z M 5.001,12.200 L 5.044,12.200 L 5.044,12.115 L 5.087,12.115 L 5.087,12.072 L 5.130,12.072 L 5.130,11.987 L 5.172,11.987 L 5.172,11.901 L 5.215,11.901 L 5.215,11.816 L 5.258,11.816 L 5.258,11.730 L 5.300,11.730 L 5.300,11.645 L 5.343,11.645 L 5.343,11.559 L 5.386,11.559 L 5.386,11.474 L 5.429,11.474 L 5.429,11.388 L 5.471,11.388 L 5.471,11.346 L 5.514,11.346 L 5.514,11.260 L 5.557,11.260 L 5.557,11.175 L 5.600,11.175 L 5.600,11.089 L 5.642,11.089 L 5.642,11.004 L 5.685,11.004 L 5.685,10.919 L 5.728,10.919 L 5.728,10.833 L 5.770,10.833 L 5.770,10.790 L 5.813,10.790 L 5.813,10.705 L 5.856,10.705 L 5.856,10.619 L 5.899,10.619 L 5.899,10.534 L 5.941,10.534 L 5.941,10.449 L 5.984,10.449 L 5.984,10.406 L 6.027,10.406 L 6.027,10.320 L 6.069,10.320 L 6.069,10.235 L 6.112,10.235 L 6.112,10.150 L 6.155,10.150 L 6.155,10.064 L 6.198,10.064 L 6.198,9.979 L 6.240,9.979 L 6.240,9.936 L 6.283,9.936 L 6.283,9.850 L 6.326,9.850 L 6.326,9.765 L 6.369,9.765 L 6.369,9.680 L 6.411,9.680 L 6.411,9.637 L 6.454,9.637 L 6.454,9.551 L 6.497,9.551 L 6.497,9.466 L 6.539,9.466 L 6.539,9.381 L 6.582,9.381 L 6.582,9.338 L 6.625,9.338 L 6.625,9.252 L 6.668,9.252 L 6.668,9.167 L 6.710,9.167 L 6.710,9.081 L 6.753,9.081 L 6.753,9.039 L 6.796,9.039 L 6.796,8.953 L 6.838,8.953 L 6.838,8.868 L 6.881,8.868 L 6.881,8.825 L 6.924,8.825 L 6.924,8.740 L 6.967,8.740 L 6.967,8.697 L 7.009,8.697 L 7.009,8.612 L 7.052,8.612 L 7.052,8.526 L 7.095,8.526 L 7.095,8.483 L 7.138,8.483 L 7.138,8.398 L 7.180,8.398 L 7.180,8.355 L 7.223,8.355 L 7.223,8.270 L 7.266,8.270 L 7.266,8.227 L 7.308,8.227 L 7.308,8.184 L 7.351,8.184 L 7.351,8.099 L 7.394,8.099 L 7.394,8.056 L 7.437,8.056 L 7.437,7.971 L 7.479,7.971 L 7.479,7.928 L 7.522,7.928 L 7.522,7.885 L 7.565,7.885 L 7.565,7.800 L 7.608,7.800 L 7.608,7.757 L 7.650,7.757 L 7.650,7.714 L 7.693,7.714 L 7.693,7.672 L 7.736,7.672 L 7.736,7.586 L 7.778,7.586 L 7.778,7.543 L 7.821,7.543 L 7.821,7.501 L 7.864,7.501 L 7.864,7.458 L 7.907,7.458 L 7.907,7.415 L 7.949,7.415 L 7.949,7.373 L 7.992,7.373 L 7.992,7.330 L 8.035,7.330 L 8.035,7.244 L 8.077,7.244 L 8.077,7.202 L 8.120,7.202 L 8.120,7.159 L 8.163,7.159 L 8.163,7.116 L 8.206,7.116 L 8.206,7.073 L 8.248,7.073 L 8.248,7.031 L 8.291,7.031 L 8.291,6.988 L 8.334,6.988 L 8.334,6.945 L 8.377,6.945 L 8.377,6.903 L 8.419,6.903 L 8.419,6.860 L 8.505,6.860 L 8.505,6.817 L 8.547,6.817 L 8.547,6.774 L 8.590,6.774 L 8.590,6.732 L 8.633,6.732 L 8.633,6.689 L 8.676,6.689 L 8.676,6.646 L 8.718,6.646 L 8.718,6.604 L 8.761,6.604 L 8.761,6.561 L 8.846,6.561 L 8.846,6.518 L 8.889,6.518 L 8.889,6.475 L 8.932,6.475 L 8.932,6.433 L 8.975,6.433 L 8.975,6.390 L 9.060,6.390 L 9.060,6.347 L 9.103,6.347 L 9.103,6.304 L 9.146,6.304 L 9.146,6.262 L 9.188,6.262 L 9.188,6.219 L 9.274,6.219 L 9.274,6.176 L 9.316,6.176 L 9.316,6.134 L 9.402,6.134 L 9.402,6.091 L 9.445,6.091 L 9.445,6.048 L 9.615,6.048 L 9.615,6.091 L 9.701,6.091 L 9.701,6.134 L 9.744,6.134 L 9.744,6.176 L 9.786,6.176 L 9.786,6.219 L 9.872,6.219 L 9.872,6.262 L 9.915,6.262 L 9.915,6.304 L 9.957,6.304 L 9.957,6.347 L 10.043,6.347 L 10.043,6.390 L 10.085,6.390 L 10.085,6.433 L 10.128,6.433 L 10.128,6.475 L 10.171,6.475 L 10.171,6.518 L 10.256,6.518 L 10.256,6.561 L 10.299,6.561 L 10.299,6.604 L 10.342,6.604 L 10.342,6.646 L 10.385,6.646 L 10.385,6.689 L 10.427,6.689 L 10.427,6.732 L 10.513,6.732 L 10.513,6.774 L 10.555,6.774 L 10.555,6.817 L 10.598,6.817 L 10.598,6.860 L 10.641,6.860 L 10.641,6.903 L 10.684,6.903 L 10.684,6.945 L 10.726,6.945 L 10.726,6.988 L 10.769,6.988 L 10.769,7.031 L 10.812,7.031 L 10.812,7.073 L 10.854,7.073 L 10.854,7.116 L 10.897,7.116 L 10.897,7.159 L 10.940,7.159 L 10.940,7.202 L 10.983,7.202 L 10.983,7.244 L 11.025,7.244 L 11.025,7.287 L 11.068,7.287 L 11.068,7.330 L 11.111,7.330 L 11.111,7.373 L 11.154,7.373 L 11.154,7.415 L 11.196,7.415 L 11.196,7.501 L 11.239,7.501 L 11.239,7.543 L 11.282,7.543 L 11.282,7.586 L 11.324,7.586 L 11.324,7.629 L 11.367,7.629 L 11.367,7.672 L 11.410,7.672 L 11.410,7.757 L 11.453,7.757 L 11.453,7.800 L 11.495,7.800 L 11.495,7.842 L 11.538,7.842 L 11.538,7.928 L 11.581,7.928 L 11.581,7.971 L 11.623,7.971 L 11.623,8.013 L 11.666,8.013 L 11.666,8.099 L 11.709,8.099 L 11.709,8.142 L 11.752,8.142 L 11.752,8.227 L 11.794,8.227 L 11.794,8.270 L 11.837,8.270 L 11.837,8.355 L 11.880,8.355 L 11.880,8.398 L 11.923,8.398 L 11.923,8.483 L 11.965,8.483 L 11.965,8.526 L 12.008,8.526 L 12.008,8.612 L 12.051,8.612 L 12.051,8.654 L 12.093,8.654 L 12.093,8.740 L 12.136,8.740 L 12.136,8.782 L 12.179,8.782 L 12.179,8.868 L 12.222,8.868 L 12.222,8.953 L 12.264,8.953 L 12.264,8.996 L 12.307,8.996 L 12.307,9.081 L 12.350,9.081 L 12.350,9.167 L 12.392,9.167 L 12.392,9.210 L 12.435,9.210 L 12.435,9.295 L 12.478,9.295 L 12.478,9.381 L 12.521,9.381 L 12.521,9.466 L 12.563,9.466 L 12.563,9.509 L 12.606,9.509 L 12.606,9.594 L 12.649,9.594 L 12.649,9.680 L 12.692,9.680 L 12.692,9.765 L 12.734,9.765 L 12.734,9.808 L 12.777,9.808 L 12.777,9.893 L 12.820,9.893 L 12.820,9.979 L 12.862,9.979 L 12.862,10.064 L 12.905,10.064 L 12.905,10.150 L 12.948,10.150 L 12.948,10.192 L 12.991,10.192 L 12.991,10.278 L 13.033,10.278 L 13.033,10.363 L 13.076,10.363 L 13.076,10.449 L 13.119,10.449 L 13.119,10.534 L 13.162,10.534 L 13.162,10.619 L 13.204,10.619 L 13.204,10.662 L 13.247,10.662 L 13.247,10.748 L 13.290,10.748 L 13.290,10.833 L 13.332,10.833 L 13.332,10.919 L 13.375,10.919 L 13.375,11.004 L 13.418,11.004 L 13.418,11.089 L 13.461,11.089 L 13.461,11.132 L 13.503,11.132 L 13.503,11.218 L 13.546,11.218 L 13.546,11.303 L 13.589,11.303 L 13.589,11.388 L 13.631,11.388 L 13.631,11.474 L 13.674,11.474 L 13.674,11.559 L 13.717,11.559 L 13.717,11.645 L 13.760,11.645 L 13.760,11.688 L 13.802,11.688 L 13.802,11.773 L 13.845,11.773 L 13.845,11.858 L 13.888,11.858 L 13.888,11.944 L 13.931,11.944 L 13.931,12.029 L 13.973,12.029 L 13.973,12.115 L 14.016,12.115 L 14.016,12.200 L 14.059,12.200 L 14.059,12.328 L 14.016,12.328 L 14.016,12.371 L 13.973,12.371 L 13.973,12.414 L 13.931,12.414 L 13.931,12.457 L 13.888,12.457 L 13.888,12.499 L 13.845,12.499 L 13.845,12.542 L 13.802,12.542 L 13.802,12.585 L 13.760,12.585 L 13.760,12.627 L 13.717,12.627 L 13.717,12.670 L 13.674,12.670 L 13.674,12.713 L 13.631,12.713 L 13.631,12.756 L 13.589,12.756 L 13.589,12.798 L 13.546,12.798 L 13.546,12.841 L 13.503,12.841 L 13.503,12.884 L 13.461,12.884 L 13.461,12.927 L 13.418,12.927 L 13.418,12.969 L 13.375,12.969 L 13.375,13.012 L 13.332,13.012 L 13.332,13.055 L 13.290,13.055 L 13.290,13.097 L 13.247,13.097 L 13.247,13.140 L 13.204,13.140 L 13.204,13.183 L 13.162,13.183 L 13.162,13.226 L 13.119,13.226 L 13.119,13.268 L 13.076,13.268 L 13.076,13.311 L 13.033,13.311 L 13.033,13.354 L 12.991,13.354 L 12.991,13.396 L 12.948,13.396 L 12.948,13.439 L 12.905,13.439 L 12.905,13.482 L 12.862,13.482 L 12.862,13.525 L 12.820,13.525 L 12.820,13.567 L 12.734,13.567 L 12.734,13.610 L 12.692,13.610 L 12.692,13.653 L 12.649,13.653 L 12.649,13.696 L 12.606,13.696 L 12.606,13.738 L 12.563,13.738 L 12.563,13.781 L 12.478,13.781 L 12.478,13.824 L 12.435,13.824 L 12.435,13.866 L 12.392,13.866 L 12.392,13.909 L 12.350,13.909 L 12.350,13.952 L 12.307,13.952 L 12.307,13.995 L 12.222,13.995 L 12.222,14.037 L 12.179,14.037 L 12.179,14.080 L 12.136,14.080 L 12.136,14.123 L 12.051,14.123 L 12.051,14.165 L 12.008,14.165 L 12.008,14.208 L 11.965,14.208 L 11.965,14.251 L 11.880,14.251 L 11.880,14.294 L 11.837,14.294 L 11.837,14.336 L 11.794,14.336 L 11.794,14.379 L 11.709,14.379 L 11.709,14.422 L 11.666,14.422 L 11.666,14.465 L 11.581,14.465 L 11.581,14.507 L 11.538,14.507 L 11.538,14.550 L 11.453,14.550 L 11.453,14.593 L 11.410,14.593 L 11.410,14.635 L 11.367,14.635 L 11.367,14.678 L 11.282,14.678 L 11.282,14.721 L 11.239,14.721 L 11.239,14.764 L 11.154,14.764 L 11.154,14.806 L 11.111,14.806 L 11.111,14.849 L 11.025,14.849 L 11.025,14.892 L 10.940,14.892 L 10.940,14.935 L 10.897,14.935 L 10.897,14.977 L 10.812,14.977 L 10.812,15.020 L 10.769,15.020 L 10.769,15.063 L 10.684,15.063 L 10.684,15.105 L 10.641,15.105 L 10.641,15.148 L 10.555,15.148 L 10.555,15.191 L 10.470,15.191 L 10.470,15.234 L 10.427,15.234 L 10.427,15.276 L 10.342,15.276 L 10.342,15.319 L 10.299,15.319 L 10.299,15.362 L 10.256,15.362 L 10.256,15.447 L 10.214,15.447 L 10.214,15.575 L 10.171,15.575 L 10.171,15.661 L 10.128,15.661 L 10.128,15.789 L 10.085,15.789 L 10.085,15.917 L 10.043,15.917 L 10.043,16.045 L 10.000,16.045 L 10.000,16.131 L 9.957,16.131 L 9.957,16.259 L 9.915,16.259 L 9.915,16.387 L 9.872,16.387 L 9.872,16.473 L 9.829,16.473 L 9.829,16.601 L 9.786,16.601 L 9.786,16.686 L 9.744,16.686 L 9.744,16.814 L 9.701,16.814 L 9.701,16.900 L 9.658,16.900 L 9.658,17.028 L 9.615,17.028 L 9.615,17.113 L 9.573,17.113 L 9.573,17.242 L 9.530,17.242 L 9.530,17.199 L 9.487,17.199 L 9.487,17.113 L 9.445,17.113 L 9.445,16.985 L 9.402,16.985 L 9.402,16.900 L 9.359,16.900 L 9.359,16.772 L 9.316,16.772 L 9.316,16.686 L 9.274,16.686 L 9.274,16.558 L 9.231,16.558 L 9.231,16.430 L 9.188,16.430 L 9.188,16.344 L 9.146,16.344 L 9.146,16.216 L 9.103,16.216 L 9.103,16.088 L 9.060,16.088 L 9.060,16.003 L 9.017,16.003 L 9.017,15.874 L 8.975,15.874 L 8.975,15.789 L 8.932,15.789 L 8.932,15.661 L 8.889,15.661 L 8.889,15.533 L 8.846,15.533 L 8.846,15.404 L 8.804,15.404 L 8.804,15.362 L 8.761,15.362 L 8.761,15.319 L 8.718,15.319 L 8.718,15.276 L 8.676,15.276 L 8.676,15.234 L 8.590,15.234 L 8.590,15.191 L 8.505,15.191 L 8.505,15.148 L 8.462,15.148 L 8.462,15.105 L 8.377,15.105 L 8.377,15.063 L 8.334,15.063 L 8.334,15.020 L 8.248,15.020 L 8.248,14.977 L 8.163,14.977 L 8.163,14.935 L 8.120,14.935 L 8.120,14.892 L 8.035,14.892 L 8.035,14.849 L 7.992,14.849 L 7.992,14.806 L 7.907,14.806 L 7.907,14.764 L 7.864,14.764 L 7.864,14.721 L 7.778,14.721 L 7.778,14.678 L 7.736,14.678 L 7.736,14.635 L 7.650,14.635 L 7.650,14.593 L 7.608,14.593 L 7.608,14.550 L 7.565,14.550 L 7.565,14.507 L 7.479,14.507 L 7.479,14.465 L 7.437,14.465 L 7.437,14.422 L 7.351,14.422 L 7.351,14.379 L 7.308,14.379 L 7.308,14.336 L 7.223,14.336 L 7.223,14.294 L 7.180,14.294 L 7.180,14.251 L 7.138,14.251 L 7.138,14.208 L 7.052,14.208 L 7.052,14.165 L 7.009,14.165 L 7.009,14.123 L 6.967,14.123 L 6.967,14.080 L 6.881,14.080 L 6.881,14.037 L 6.838,14.037 L 6.838,13.995 L 6.796,13.995 L 6.796,13.952 L 6.710,13.952 L 6.710,13.909 L 6.668,13.909 L 6.668,13.866 L 6.625,13.866 L 6.625,13.824 L 6.582,13.824 L 6.582,13.781 L 6.539,13.781 L 6.539,13.738 L 6.454,13.738 L 6.454,13.696 L 6.411,13.696 L 6.411,13.653 L 6.369,13.653 L 6.369,13.610 L 6.326,13.610 L 6.326,13.567 L 6.283,13.567 L 6.283,13.525 L 6.240,13.525 L 6.240,13.482 L 6.198,13.482 L 6.198,13.439 L 6.155,13.439 L 6.155,13.396 L 6.069,13.396 L 6.069,13.354 L 6.027,13.354 L 6.027,13.311 L 5.984,13.311 L 5.984,13.268 L 5.941,13.268 L 5.941,13.226 L 5.899,13.226 L 5.899,13.183 L 5.856,13.183 L 5.856,13.140 L 5.813,13.140 L 5.813,13.097 L 5.770,13.097 L 5.770,13.055 L 5.728,13.055 L 5.728,13.012 L 5.685,13.012 L 5.685,12.969 L 5.642,12.969 L 5.642,12.927 L 5.600,12.927 L 5.600,12.884 L 5.557,12.884 L 5.557,12.841 L 5.514,12.841 L 5.514,12.798 L 5.471,12.798 L 5.471,12.756 L 5.429,12.756 L 5.429,12.713 L 5.386,12.713 L 5.386,12.670 L 5.343,12.670 L 5.343,12.627 L 5.300,12.627 L 5.300,12.585 L 5.258,12.585 L 5.258,12.542 L 5.215,12.542 L 5.215,12.499 L 5.172,12.499 L 5.172,12.457 L 5.130,12.457 L 5.130,12.414 L 5.087,12.414 L 5.087,12.371 L 5.044,12.371 L 5.044,12.286 L 5.001,12.286 Z M 7.223,9.167 L 7.223,9.381 L 7.266,9.381 L 7.266,9.466 L 7.308,9.466 L 7.308,9.551 L 7.351,9.551 L 7.351,9.637 L 7.394,9.637 L 7.394,9.680 L 7.437,9.680 L 7.437,9.722 L 7.479,9.722 L 7.479,9.765 L 7.565,9.765 L 7.565,9.808 L 7.608,9.808 L 7.608,9.850 L 7.693,9.850 L 7.693,9.893 L 7.864,9.893 L 7.864,9.936 L 8.206,9.936 L 8.206,9.893 L 8.377,9.893 L 8.377,9.850 L 8.505,9.850 L 8.505,9.808 L 8.590,9.808 L 8.590,9.765 L 8.633,9.765 L 8.633,9.722 L 8.718,9.722 L 8.718,9.680 L 8.804,9.680 L 8.804,9.551 L 8.761,9.551 L 8.761,9.466 L 8.718,9.466 L 8.718,9.423 L 8.676,9.423 L 8.676,9.381 L 8.633,9.381 L 8.633,9.338 L 8.590,9.338 L 8.590,9.295 L 8.547,9.295 L 8.547,9.252 L 8.462,9.252 L 8.462,9.210 L 8.419,9.210 L 8.419,9.167 L 8.334,9.167 L 8.334,9.124 L 8.291,9.124 L 8.291,9.081 L 8.163,9.081 L 8.163,9.039 L 8.035,9.039 L 8.035,8.996 L 7.522,8.996 L 7.522,9.039 L 7.394,9.039 L 7.394,9.081 L 7.308,9.081 L 7.308,9.124 L 7.266,9.124 L 7.266,9.167 Z M 8.419,12.670 L 8.462,12.670 L 8.462,12.585 L 8.505,12.585 L 8.505,12.542 L 10.555,12.542 L 10.555,12.585 L 10.598,12.585 L 10.598,12.627 L 10.641,12.627 L 10.641,12.756 L 10.598,12.756 L 10.598,12.798 L 10.555,12.798 L 10.555,12.841 L 8.505,12.841 L 8.505,12.798 L 8.462,12.798 L 8.462,12.713 L 8.419,12.713 Z M 10.256,9.551 L 10.256,9.637 L 10.299,9.637 L 10.299,9.680 L 10.342,9.680 L 10.342,9.722 L 10.427,9.722 L 10.427,9.765 L 10.513,9.765 L 10.513,9.808 L 10.598,9.808 L 10.598,9.850 L 10.684,9.850 L 10.684,9.893 L 10.854,9.893 L 10.854,9.936 L 11.196,9.936 L 11.196,9.893 L 11.367,9.893 L 11.367,9.850 L 11.453,9.850 L 11.453,9.808 L 11.538,9.808 L 11.538,9.765 L 11.581,9.765 L 11.581,9.722 L 11.623,9.722 L 11.623,9.680 L 11.666,9.680 L 11.666,9.637 L 11.709,9.637 L 11.709,9.551 L 11.752,9.551 L 11.752,9.466 L 11.794,9.466 L 11.794,9.381 L 11.837,9.381 L 11.837,9.124 L 11.794,9.124 L 11.794,9.081 L 11.666,9.081 L 11.666,9.039 L 11.538,9.039 L 11.538,8.996 L 11.025,8.996 L 11.025,9.039 L 10.897,9.039 L 10.897,9.081 L 10.769,9.081 L 10.769,9.124 L 10.726,9.124 L 10.726,9.167 L 10.641,9.167 L 10.641,9.210 L 10.598,9.210 L 10.598,9.252 L 10.555,9.252 L 10.555,9.295 L 10.470,9.295 L 10.470,9.338 L 10.427,9.338 L 10.427,9.381 L 10.385,9.381 L 10.385,9.423 L 10.342,9.423 L 10.342,9.509 L 10.299,9.509 L 10.299,9.551 Z M 8.846,11.645 L 8.889,11.645 L 8.889,11.559 L 8.932,11.559 L 8.932,11.517 L 8.975,11.517 L 8.975,11.559 L 9.146,11.559 L 9.146,11.602 L 9.274,11.602 L 9.274,11.645 L 9.402,11.645 L 9.402,11.688 L 9.701,11.688 L 9.701,11.645 L 9.829,11.645 L 9.829,11.602 L 9.957,11.602 L 9.957,11.559 L 10.085,11.559 L 10.085,11.517 L 10.128,11.517 L 10.128,11.559 L 10.171,11.559 L 10.171,11.645 L 10.214,11.645 L 10.214,11.730 L 10.171,11.730 L 10.171,11.816 L 10.128,11.816 L 10.128,11.858 L 10.085,11.858 L 10.085,11.901 L 10.000,11.901 L 10.000,11.944 L 9.957,11.944 L 9.957,11.987 L 9.872,11.987 L 9.872,12.029 L 9.829,12.029 L 9.829,12.072 L 9.744,12.072 L 9.744,12.115 L 9.316,12.115 L 9.316,12.072 L 9.231,12.072 L 9.231,12.029 L 9.188,12.029 L 9.188,11.987 L 9.146,11.987 L 9.146,11.944 L 9.060,11.944 L 9.060,11.901 L 8.975,11.901 L 8.975,11.858 L 8.932,11.858 L 8.932,11.816 L 8.889,11.816 L 8.889,11.730 L 8.846,11.730 Z" fill="#000000" fill-rule="nonzero"/>
</svg>
