<?xml version="1.0" encoding="UTF-8"?>
<svg xmlns="http://www.w3.org/2000/svg" width="20.0mm" height="20.0mm" viewBox="0 0 20.0 20.0">
  <title>Stone Giant</title>
  <path d="M 8.927,8.150 L 8.927,8.187 L 8.964,8.187 L 8.964,8.261 L 9.001,8.261 L 9.001,8.335 L 9.038,8.335 L 9.038,8.409 L 9.075,8.409 L 9.075,8.446 L 10.851,8.446 L 10.851,8.409 L 10.888,8.409 L 10.888,8.335 L 10.925,8.335 L 10.925,8.261 L 10.962,8.261 L 10.962,8.076 L 10.925,8.076 L 10.925,7.928 L 10.888,7.928 L 10.888,7.780 L 10.851,7.780 L 10.851,7.670 L 10.814,7.670 L 10.814,7.522 L 10.777,7.522 L 10.777,7.411 L 10.740,7.411 L 10.740,7.263 L 10.703,7.263 L 10.703,7.152 L 10.666,7.152 L 10.666,7.041 L 10.629,7.041 L 10.629,6.893 L 10.592,6.893 L 10.592,6.782 L 10.555,6.782 L 10.555,6.634 L 10.518,6.634 L 10.518,6.523 L 10.481,6.523 L 10.481,6.412 L 10.444,6.412 L 10.444,6.338 L 10.407,6.338 L 10.407,6.264 L 10.370,6.264 L 10.370,6.227 L 10.333,6.227 L 10.333,6.190 L 9.556,6.190 L 9.556,6.264 L 9.519,6.264 L 9.519,6.301 L 9.482,6.301 L 9.482,6.412 L 9.445,6.412 L 9.445,6.523 L 9.408,6.523 L 9.408,6.634 L 9.371,6.634 L 9.371,6.745 L 9.334,6.745 L 9.334,6.856 L 9.297,6.856 L 9.297,7.004 L 9.260,7.004 L 9.260,7.115 L 9.223,7.115 L 9.223,7.263 L 9.186,7.263 L 9.186,7.374 L 9.149,7.374 L 9.149,7.485 L 9.112,7.485 L 9.112,7.633 L 9.075,7.633 L 9.075,7.743 L 9.038,7.743 L 9.038,7.891 L 9.001,7.891 L 9.001,8.002 L 8.964,8.002 L 8.964,8.150 Z M 0.900,15.438 L 0.937,15.438 L 0.937,15.327 L 0.974,15.327 L 0.974,15.253 L 1.011,15.253 L 1.011,15.179 L 1.048,15.179 L 1.048,15.105 L 1.085,15.105 L 1.085,14.994 L 1.122,14.994 L 1.122,14.920 L 1.159,14.920 L 1.159,14.846 L 1.196,14.846 L 1.196,14.735 L 1.233,14.735 L 1.233,14.661 L 1.270,14.661 L 1.270,14.587 L 1.307,14.587 L 1.307,14.513 L 1.344,14.513 L 1.344,14.402 L 1.381,14.402 L 1.381,14.328 L 1.418,14.328 L 1.418,14.254 L 1.455,14.254 L 1.455,14.180 L 1.492,14.180 L 1.492,14.106 L 1.529,14.106 L 1.529,13.995 L 1.566,13.995 L 1.566,13.921 L 1.603,13.921 L 1.603,13.847 L 1.640,13.847 L 1.640,13.773 L 1.677,13.773 L 1.677,13.699 L 1.751,13.699 L 1.751,13.662 L 1.788,13.662 L 1.788,13.625 L 1.862,13.625 L 1.862,13.588 L 1.899,13.588 L 1.899,13.551 L 1.973,13.551 L 1.973,13.514 L 2.010,13.514 L 2.010,13.477 L 2.084,13.477 L 2.084,13.440 L 2.121,13.440 L 2.121,13.403 L 2.195,13.403 L 2.195,13.366 L 2.232,13.366 L 2.232,13.329 L 2.306,13.329 L 2.306,13.292 L 2.343,13.292 L 2.343,13.255 L 2.380,13.255 L 2.380,13.218 L 2.454,13.218 L 2.454,13.181 L 2.491,13.181 L 2.491,13.144 L 2.565,13.144 L 2.565,13.107 L 2.602,13.107 L 2.602,13.070 L 2.676,13.070 L 2.676,13.033 L 2.713,13.033 L 2.713,12.996 L 2.787,12.996 L 2.787,12.959 L 2.824,12.959 L 2.824,12.922 L 2.898,12.922 L 2.898,12.885 L 2.935,12.885 L 2.935,12.848 L 3.046,12.848 L 3.046,12.885 L 3.120,12.885 L 3.120,12.922 L 3.157,12.922 L 3.157,12.959 L 3.230,12.959 L 3.230,12.996 L 3.304,12.996 L 3.304,13.033 L 3.341,13.033 L 3.341,13.070 L 3.415,13.070 L 3.415,13.107 L 3.489,13.107 L 3.489,13.144 L 3.526,13.144 L 3.526,13.181 L 3.600,13.181 L 3.600,13.218 L 3.637,13.218 L 3.637,13.255 L 3.711,13.255 L 3.711,13.292 L 3.785,13.292 L 3.785,13.329 L 3.822,13.329 L 3.822,13.366 L 3.896,13.366 L 3.896,13.403 L 3.970,13.403 L 3.970,13.440 L 4.007,13.440 L 4.007,13.477 L 4.081,13.477 L 4.081,13.514 L 4.118,13.514 L 4.118,13.551 L 4.192,13.551 L 4.192,13.588 L 4.266,13.588 L 4.266,13.625 L 4.303,13.625 L 4.303,13.662 L 4.377,13.662 L 4.377,13.699 L 4.414,13.699 L 4.414,13.736 L 4.488,13.736 L 4.488,13.773 L 4.562,13.773 L 4.562,13.810 L 4.599,13.810 L 4.599,13.847 L 4.673,13.847 L 4.673,13.884 L 4.747,13.884 L 4.747,13.921 L 4.784,13.921 L 4.784,13.958 L 4.858,13.958 L 4.858,13.995 L 4.895,13.995 L 4.895,14.032 L 4.969,14.032 L 4.969,14.069 L 5.006,14.069 L 5.006,14.106 L 5.080,14.106 L 5.080,14.143 L 5.117,14.143 L 5.117,14.180 L 5.154,14.180 L 5.154,14.217 L 5.191,14.217 L 5.191,14.254 L 5.265,14.254 L 5.265,14.291 L 5.302,14.291 L 5.302,14.328 L 5.339,14.328 L 5.339,14.365 L 5.376,14.365 L 5.376,14.402 L 5.450,14.402 L 5.450,14.439 L 5.487,14.439 L 5.487,14.476 L 5.524,14.476 L 5.524,14.513 L 5.635,14.513 L 5.635,14.550 L 5.783,14.550 L 5.783,14.587 L 5.931,14.587 L 5.931,14.624 L 6.079,14.624 L 6.079,14.661 L 6.227,14.661 L 6.227,14.698 L 6.375,14.698 L 6.375,14.735 L 6.486,14.735 L 6.486,14.772 L 6.560,14.772 L 6.560,14.809 L 6.597,14.809 L 6.597,14.846 L 6.634,14.846 L 6.634,14.883 L 6.671,14.883 L 6.671,14.920 L 6.745,14.920 L 6.745,14.957 L 6.782,14.957 L 6.782,14.994 L 6.819,14.994 L 6.819,15.031 L 6.893,15.031 L 6.893,15.068 L 6.930,15.068 L 6.930,15.105 L 6.967,15.105 L 6.967,15.142 L 7.041,15.142 L 7.041,15.179 L 7.078,15.179 L 7.078,15.216 L 7.115,15.216 L 7.115,15.253 L 7.152,15.253 L 7.152,15.290 L 7.226,15.290 L 7.226,15.327 L 7.263,15.327 L 7.263,15.364 L 7.337,15.364 L 7.337,15.401 L 7.448,15.401 L 7.448,15.438 L 7.522,15.438 L 7.522,15.475 L 7.596,15.475 L 7.596,15.512 L 7.707,15.512 L 7.707,15.549 L 7.780,15.549 L 7.780,15.586 L 7.854,15.586 L 7.854,15.623 L 7.965,15.623 L 7.965,15.660 L 8.039,15.660 L 8.039,15.697 L 8.113,15.697 L 8.113,15.734 L 8.187,15.734 L 8.187,15.771 L 8.298,15.771 L 8.298,15.808 L 8.372,15.808 L 8.372,15.845 L 8.446,15.845 L 8.446,15.882 L 8.557,15.882 L 8.557,15.919 L 8.631,15.919 L 8.631,15.956 L 8.705,15.956 L 8.705,15.993 L 8.779,15.993 L 8.779,16.030 L 8.890,16.030 L 8.890,16.067 L 8.964,16.067 L 8.964,16.104 L 9.038,16.104 L 9.038,16.141 L 9.112,16.141 L 9.112,16.178 L 9.186,16.178 L 9.186,16.215 L 9.297,16.215 L 9.297,16.252 L 9.371,16.252 L 9.371,16.289 L 9.408,16.289 L 9.408,16.326 L 9.445,16.326 L 9.445,16.400 L 9.482,16.400 L 9.482,16.474 L 9.519,16.474 L 9.519,16.548 L 9.556,16.548 L 9.556,16.622 L 9.593,16.622 L 9.593,16.696 L 9.630,16.696 L 9.630,16.770 L 9.667,16.770 L 9.667,16.843 L 9.704,16.843 L 9.704,16.917 L 9.741,16.917 L 9.741,17.028 L 9.778,17.028 L 9.778,17.102 L 9.815,17.102 L 9.815,17.176 L 9.852,17.176 L 9.852,17.287 L 9.889,17.287 L 9.889,17.916 L 9.926,17.916 L 9.926,18.619 L 9.889,18.619 L 9.889,18.656 L 0.937,18.656 L 0.937,18.619 L 0.900,18.619 Z M 13.477,8.964 L 13.514,8.964 L 13.514,8.927 L 13.551,8.927 L 13.551,8.890 L 13.588,8.890 L 13.588,8.853 L 13.625,8.853 L 13.625,8.779 L 13.662,8.779 L 13.662,8.742 L 13.699,8.742 L 13.699,8.705 L 13.736,8.705 L 13.736,8.668 L 13.773,8.668 L 13.773,8.594 L 13.810,8.594 L 13.810,8.557 L 13.847,8.557 L 13.847,8.520 L 13.884,8.520 L 13.884,8.446 L 13.921,8.446 L 13.921,8.409 L 13.958,8.409 L 13.958,8.372 L 13.995,8.372 L 13.995,8.335 L 14.032,8.335 L 14.032,8.261 L 14.069,8.261 L 14.069,7.891 L 14.032,7.891 L 14.032,7.559 L 14.069,7.559 L 14.069,7.522 L 14.143,7.522 L 14.143,7.485 L 14.180,7.485 L 14.180,7.448 L 14.254,7.448 L 14.254,7.411 L 14.291,7.411 L 14.291,7.374 L 14.365,7.374 L 14.365,7.337 L 14.439,7.337 L 14.439,7.300 L 14.513,7.300 L 14.513,7.263 L 14.587,7.263 L 14.587,7.226 L 14.661,7.226 L 14.661,7.189 L 14.735,7.189 L 14.735,7.152 L 14.809,7.152 L 14.809,7.115 L 14.920,7.115 L 14.920,7.078 L 15.031,7.078 L 15.031,7.041 L 15.179,7.041 L 15.179,7.004 L 16.141,7.004 L 16.141,7.041 L 16.363,7.041 L 16.363,7.078 L 16.511,7.078 L 16.511,7.115 L 16.622,7.115 L 16.622,7.152 L 16.770,7.152 L 16.770,7.189 L 16.843,7.189 L 16.843,7.226 L 16.954,7.226 L 16.954,7.263 L 17.065,7.263 L 17.065,7.300 L 17.139,7.300 L 17.139,7.337 L 17.250,7.337 L 17.250,7.374 L 17.324,7.374 L 17.324,7.411 L 17.398,7.411 L 17.398,7.448 L 17.472,7.448 L 17.472,7.485 L 17.546,7.485 L 17.546,7.522 L 17.620,7.522 L 17.620,7.559 L 17.657,7.559 L 17.657,7.596 L 17.694,7.596 L 17.694,7.633 L 17.731,7.633 L 17.731,7.670 L 17.768,7.670 L 17.768,7.707 L 17.805,7.707 L 17.805,7.743 L 17.842,7.743 L 17.842,7.780 L 17.879,7.780 L 17.879,7.817 L 17.916,7.817 L 17.916,7.854 L 17.953,7.854 L 17.953,7.891 L 17.990,7.891 L 17.990,7.928 L 18.027,7.928 L 18.027,7.965 L 18.064,7.965 L 18.064,8.002 L 18.101,8.002 L 18.101,8.039 L 18.138,8.039 L 18.138,8.076 L 18.175,8.076 L 18.175,8.150 L 18.212,8.150 L 18.212,8.187 L 18.249,8.187 L 18.249,8.224 L 18.286,8.224 L 18.286,8.261 L 18.323,8.261 L 18.323,8.298 L 18.360,8.298 L 18.360,8.372 L 18.397,8.372 L 18.397,8.409 L 18.434,8.409 L 18.434,8.446 L 18.471,8.446 L 18.471,8.520 L 18.508,8.520 L 18.508,8.557 L 18.545,8.557 L 18.545,8.594 L 18.582,8.594 L 18.582,8.668 L 18.619,8.668 L 18.619,8.705 L 18.656,8.705 L 18.656,8.779 L 18.693,8.779 L 18.693,8.816 L 18.730,8.816 L 18.730,8.890 L 18.767,8.890 L 18.767,8.964 L 18.804,8.964 L 18.804,9.038 L 18.841,9.038 L 18.841,9.112 L 18.878,9.112 L 18.878,9.223 L 18.915,9.223 L 18.915,9.371 L 18.952,9.371 L 18.952,9.519 L 18.989,9.519 L 18.989,9.741 L 19.026,9.741 L 19.026,10.000 L 19.063,10.000 L 19.063,10.703 L 19.026,10.703 L 19.026,11.036 L 18.989,11.036 L 18.989,11.258 L 18.952,11.258 L 18.952,11.406 L 18.915,11.406 L 18.915,11.554 L 18.878,11.554 L 18.878,11.665 L 18.841,11.665 L 18.841,11.739 L 18.804,11.739 L 18.804,11.850 L 18.767,11.850 L 18.767,11.924 L 18.730,11.924 L 18.730,11.998 L 18.693,11.998 L 18.693,12.072 L 18.656,12.072 L 18.656,12.146 L 18.619,12.146 L 18.619,12.220 L 18.582,12.220 L 18.582,12.293 L 18.545,12.293 L 18.545,12.367 L 18.508,12.367 L 18.508,12.404 L 18.471,12.404 L 18.471,12.478 L 18.434,12.478 L 18.434,12.552 L 18.397,12.552 L 18.397,12.589 L 18.360,12.589 L 18.360,12.626 L 18.323,12.626 L 18.323,12.700 L 18.286,12.700 L 18.286,12.737 L 18.249,12.737 L 18.249,12.774 L 18.212,12.774 L 18.212,12.811 L 18.175,12.811 L 18.175,12.885 L 18.138,12.885 L 18.138,12.922 L 18.101,12.922 L 18.101,12.959 L 18.064,12.959 L 18.064,12.996 L 18.027,12.996 L 18.027,13.033 L 17.990,13.033 L 17.990,13.070 L 17.916,13.070 L 17.916,13.107 L 17.879,13.107 L 17.879,13.144 L 17.694,13.144 L 17.694,13.107 L 17.583,13.107 L 17.583,13.070 L 17.509,13.070 L 17.509,13.033 L 17.398,13.033 L 17.398,12.996 L 17.287,12.996 L 17.287,12.959 L 17.176,12.959 L 17.176,12.922 L 17.065,12.922 L 17.065,12.885 L 16.954,12.885 L 16.954,12.848 L 16.843,12.848 L 16.843,12.811 L 16.733,12.811 L 16.733,12.774 L 16.622,12.774 L 16.622,12.737 L 16.548,12.737 L 16.548,12.700 L 16.437,12.700 L 16.437,12.663 L 16.326,12.663 L 16.326,12.626 L 16.215,12.626 L 16.215,12.589 L 16.104,12.589 L 16.104,12.552 L 15.993,12.552 L 15.993,12.478 L 15.956,12.478 L 15.956,12.404 L 15.919,12.404 L 15.919,12.330 L 15.882,12.330 L 15.882,12.293 L 15.845,12.293 L 15.845,12.220 L 15.808,12.220 L 15.808,12.146 L 15.771,12.146 L 15.771,12.072 L 15.734,12.072 L 15.734,11.998 L 15.697,11.998 L 15.697,11.924 L 15.660,11.924 L 15.660,11.887 L 15.623,11.887 L 15.623,11.813 L 15.586,11.813 L 15.586,11.739 L 15.549,11.739 L 15.549,11.665 L 15.512,11.665 L 15.512,11.628 L 15.401,11.628 L 15.401,11.591 L 15.327,11.591 L 15.327,11.554 L 15.253,11.554 L 15.253,11.517 L 15.179,11.517 L 15.179,11.480 L 15.105,11.480 L 15.105,11.443 L 14.994,11.443 L 14.994,11.406 L 14.920,11.406 L 14.920,11.369 L 14.846,11.369 L 14.846,11.332 L 14.772,11.332 L 14.772,11.295 L 14.698,11.295 L 14.698,11.258 L 14.587,11.258 L 14.587,11.221 L 14.513,11.221 L 14.513,11.184 L 14.439,11.184 L 14.439,11.147 L 14.365,11.147 L 14.365,11.110 L 14.291,11.110 L 14.291,11.073 L 14.180,11.073 L 14.180,11.036 L 14.106,11.036 L 14.106,10.999 L 14.032,10.999 L 14.032,10.962 L 13.958,10.962 L 13.958,10.925 L 13.847,10.925 L 13.847,10.888 L 13.773,10.888 L 13.773,10.777 L 13.736,10.777 L 13.736,10.629 L 13.699,10.629 L 13.699,10.407 L 13.662,10.407 L 13.662,10.222 L 13.625,10.222 L 13.625,10.000 L 13.588,10.000 L 13.588,9.778 L 13.551,9.778 L 13.551,9.519 L 13.514,9.519 L 13.514,9.260 L 13.477,9.260 Z M 3.526,12.737 L 3.563,12.737 L 3.563,12.663 L 3.600,12.663 L 3.600,12.626 L 3.637,12.626 L 3.637,12.552 L 3.674,12.552 L 3.674,12.478 L 3.711,12.478 L 3.711,12.441 L 3.748,12.441 L 3.748,12.367 L 3.785,12.367 L 3.785,12.330 L 3.822,12.330 L 3.822,12.257 L 3.859,12.257 L 3.859,12.220 L 3.896,12.220 L 3.896,12.146 L 3.933,12.146 L 3.933,12.109 L 3.970,12.109 L 3.970,12.072 L 4.007,12.072 L 4.007,11.998 L 4.044,11.998 L 4.044,11.961 L 4.081,11.961 L 4.081,11.887 L 4.118,11.887 L 4.118,11.850 L 4.155,11.850 L 4.155,11.776 L 4.192,11.776 L 4.192,11.739 L 4.229,11.739 L 4.229,11.702 L 4.266,11.702 L 4.266,11.665 L 4.340,11.665 L 4.340,11.628 L 4.414,11.628 L 4.414,11.591 L 4.488,11.591 L 4.488,11.554 L 4.562,11.554 L 4.562,11.517 L 4.673,11.517 L 4.673,11.480 L 4.747,11.480 L 4.747,11.443 L 4.821,11.443 L 4.821,11.406 L 4.932,11.406 L 4.932,11.369 L 5.006,11.369 L 5.006,11.332 L 5.080,11.332 L 5.080,11.295 L 5.154,11.295 L 5.154,11.258 L 5.265,11.258 L 5.265,11.221 L 5.339,11.221 L 5.339,11.184 L 5.413,11.184 L 5.413,11.147 L 5.487,11.147 L 5.487,11.110 L 5.598,11.110 L 5.598,11.073 L 5.672,11.073 L 5.672,11.036 L 5.746,11.036 L 5.746,10.999 L 5.820,10.999 L 5.820,10.962 L 5.894,10.962 L 5.894,10.925 L 5.968,10.925 L 5.968,10.851 L 6.005,10.851 L 6.005,10.629 L 6.042,10.629 L 6.042,10.444 L 6.079,10.444 L 6.079,10.222 L 6.116,10.222 L 6.116,10.000 L 6.153,10.000 L 6.153,9.815 L 6.190,9.815 L 6.190,9.630 L 6.227,9.630 L 6.227,9.445 L 6.264,9.445 L 6.264,9.223 L 6.301,9.223 L 6.301,9.075 L 6.338,9.075 L 6.338,8.964 L 6.375,8.964 L 6.375,9.038 L 6.412,9.038 L 6.412,9.112 L 6.449,9.112 L 6.449,9.186 L 6.486,9.186 L 6.486,9.297 L 6.523,9.297 L 6.523,9.408 L 6.560,9.408 L 6.560,9.519 L 6.597,9.519 L 6.597,10.777 L 6.560,10.777 L 6.560,11.961 L 6.597,11.961 L 6.597,11.998 L 6.634,11.998 L 6.634,12.035 L 6.671,12.035 L 6.671,12.109 L 6.708,12.109 L 6.708,12.146 L 6.745,12.146 L 6.745,12.183 L 6.782,12.183 L 6.782,12.220 L 6.819,12.220 L 6.819,12.293 L 6.856,12.293 L 6.856,12.330 L 6.893,12.330 L 6.893,12.367 L 6.930,12.367 L 6.930,12.404 L 6.967,12.404 L 6.967,12.478 L 7.004,12.478 L 7.004,12.515 L 7.041,12.515 L 7.041,12.552 L 7.078,12.552 L 7.078,12.589 L 7.115,12.589 L 7.115,12.663 L 7.152,12.663 L 7.152,12.700 L 7.189,12.700 L 7.189,12.737 L 7.226,12.737 L 7.226,12.811 L 7.263,12.811 L 7.263,12.848 L 7.300,12.848 L 7.300,12.885 L 7.337,12.885 L 7.337,12.922 L 7.374,12.922 L 7.374,12.996 L 7.411,12.996 L 7.411,13.033 L 7.448,13.033 L 7.448,13.070 L 7.485,13.070 L 7.485,13.144 L 7.522,13.144 L 7.522,13.181 L 7.559,13.181 L 7.559,13.218 L 7.596,13.218 L 7.596,13.255 L 7.633,13.255 L 7.633,13.329 L 7.670,13.329 L 7.670,13.366 L 7.707,13.366 L 7.707,13.403 L 7.743,13.403 L 7.743,13.477 L 7.780,13.477 L 7.780,13.514 L 7.817,13.514 L 7.817,13.551 L 7.854,13.551 L 7.854,13.588 L 7.891,13.588 L 7.891,13.625 L 8.150,13.625 L 8.150,13.662 L 8.446,13.662 L 8.446,13.699 L 8.779,13.699 L 8.779,13.736 L 9.038,13.736 L 9.038,13.773 L 9.371,13.773 L 9.371,13.810 L 9.667,13.810 L 9.667,13.847 L 10.370,13.847 L 10.370,13.810 L 10.777,13.810 L 10.777,13.773 L 11.184,13.773 L 11.184,13.736 L 11.591,13.736 L 11.591,13.699 L 11.850,13.699 L 11.850,13.662 L 11.887,13.662 L 11.887,13.588 L 11.924,13.588 L 11.924,13.551 L 11.961,13.551 L 11.961,13.514 L 11.998,13.514 L 11.998,13.477 L 12.035,13.477 L 12.035,13.403 L 12.072,13.403 L 12.072,13.366 L 12.109,13.366 L 12.109,13.329 L 12.146,13.329 L 12.146,13.292 L 12.183,13.292 L 12.183,13.255 L 12.220,13.255 L 12.220,13.181 L 12.257,13.181 L 12.257,13.144 L 12.293,13.144 L 12.293,13.107 L 12.330,13.107 L 12.330,13.070 L 12.367,13.070 L 12.367,13.033 L 12.404,13.033 L 12.404,12.996 L 12.441,12.996 L 12.441,12.922 L 12.478,12.922 L 12.478,12.885 L 12.515,12.885 L 12.515,12.848 L 12.552,12.848 L 12.552,12.811 L 12.589,12.811 L 12.589,12.774 L 12.626,12.774 L 12.626,12.737 L 12.663,12.737 L 12.663,12.663 L 12.700,12.663 L 12.700,12.626 L 12.737,12.626 L 12.737,12.589 L 12.774,12.589 L 12.774,12.552 L 12.811,12.552 L 12.811,12.515 L 12.848,12.515 L 12.848,12.441 L 12.885,12.441 L 12.885,12.404 L 12.922,12.404 L 12.922,12.367 L 12.959,12.367 L 12.959,12.330 L 12.996,12.330 L 12.996,12.293 L 13.033,12.293 L 13.033,12.220 L 13.070,12.220 L 13.070,12.183 L 13.107,12.183 L 13.107,12.146 L 13.144,12.146 L 13.144,12.109 L 13.181,12.109 L 13.181,12.072 L 13.218,12.072 L 13.218,11.998 L 13.255,11.998 L 13.255,11.961 L 13.292,11.961 L 13.292,10.296 L 13.366,10.296 L 13.366,10.407 L 13.403,10.407 L 13.403,10.481 L 13.440,10.481 L 13.440,10.592 L 13.477,10.592 L 13.477,10.666 L 13.514,10.666 L 13.514,10.777 L 13.551,10.777 L 13.551,10.851 L 13.588,10.851 L 13.588,10.962 L 13.625,10.962 L 13.625,11.073 L 13.662,11.073 L 13.662,11.147 L 13.736,11.147 L 13.736,11.184 L 13.810,11.184 L 13.810,11.221 L 13.884,11.221 L 13.884,11.258 L 13.958,11.258 L 13.958,11.295 L 14.032,11.295 L 14.032,11.332 L 14.106,11.332 L 14.106,11.369 L 14.180,11.369 L 14.180,11.406 L 14.291,11.406 L 14.291,11.443 L 14.365,11.443 L 14.365,11.480 L 14.439,11.480 L 14.439,11.517 L 14.513,11.517 L 14.513,11.554 L 14.587,11.554 L 14.587,11.591 L 14.698,11.591 L 14.698,11.628 L 14.772,11.628 L 14.772,11.665 L 14.846,11.665 L 14.846,11.702 L 14.920,11.702 L 14.920,11.739 L 14.994,11.739 L 14.994,11.776 L 15.105,11.776 L 15.105,11.813 L 15.179,11.813 L 15.179,11.850 L 15.253,11.850 L 15.253,11.887 L 15.327,11.887 L 15.327,11.924 L 15.364,11.924 L 15.364,11.998 L 15.401,11.998 L 15.401,12.072 L 15.438,12.072 L 15.438,12.146 L 15.475,12.146 L 15.475,12.183 L 15.512,12.183 L 15.512,12.257 L 15.549,12.257 L 15.549,12.330 L 15.586,12.330 L 15.586,12.404 L 15.623,12.404 L 15.623,12.478 L 15.660,12.478 L 15.660,12.552 L 15.697,12.552 L 15.697,12.589 L 15.734,12.589 L 15.734,12.663 L 15.771,12.663 L 15.771,12.737 L 15.808,12.737 L 15.808,12.811 L 15.771,12.811 L 15.771,12.848 L 15.734,12.848 L 15.734,12.922 L 15.697,12.922 L 15.697,12.959 L 15.660,12.959 L 15.660,13.033 L 15.623,13.033 L 15.623,13.070 L 15.586,13.070 L 15.586,13.107 L 15.549,13.107 L 15.549,13.181 L 15.512,13.181 L 15.512,13.218 L 15.475,13.218 L 15.475,13.255 L 15.438,13.255 L 15.438,13.329 L 15.401,13.329 L 15.401,13.366 L 15.364,13.366 L 15.364,13.440 L 15.327,13.440 L 15.327,13.477 L 15.290,13.477 L 15.290,13.514 L 15.253,13.514 L 15.253,13.588 L 15.216,13.588 L 15.216,13.625 L 15.179,13.625 L 15.179,13.662 L 15.142,13.662 L 15.142,13.736 L 15.105,13.736 L 15.105,13.773 L 15.068,13.773 L 15.068,13.810 L 15.031,13.810 L 15.031,13.884 L 14.957,13.884 L 14.957,13.921 L 14.846,13.921 L 14.846,13.958 L 14.772,13.958 L 14.772,13.995 L 14.661,13.995 L 14.661,14.032 L 14.550,14.032 L 14.550,14.069 L 14.476,14.069 L 14.476,14.106 L 14.365,14.106 L 14.365,14.143 L 14.254,14.143 L 14.254,14.180 L 14.180,14.180 L 14.180,14.217 L 14.069,14.217 L 14.069,14.254 L 13.958,14.254 L 13.958,14.291 L 13.884,14.291 L 13.884,14.328 L 13.773,14.328 L 13.773,14.365 L 13.662,14.365 L 13.662,14.402 L 13.588,14.402 L 13.588,14.439 L 13.477,14.439 L 13.477,14.476 L 13.366,14.476 L 13.366,14.513 L 13.292,14.513 L 13.292,14.550 L 13.181,14.550 L 13.181,14.587 L 13.070,14.587 L 13.070,14.624 L 12.996,14.624 L 12.996,14.661 L 12.885,14.661 L 12.885,14.698 L 12.774,14.698 L 12.774,14.735 L 12.700,14.735 L 12.700,14.772 L 12.626,14.772 L 12.626,14.809 L 12.589,14.809 L 12.589,14.883 L 12.552,14.883 L 12.552,14.920 L 12.515,14.920 L 12.515,14.994 L 12.478,14.994 L 12.478,15.031 L 12.441,15.031 L 12.441,15.105 L 12.404,15.105 L 12.404,15.142 L 12.367,15.142 L 12.367,15.216 L 12.330,15.216 L 12.330,15.253 L 12.293,15.253 L 12.293,15.290 L 12.257,15.290 L 12.257,15.364 L 12.220,15.364 L 12.220,15.401 L 12.183,15.401 L 12.183,15.475 L 12.146,15.475 L 12.146,15.512 L 12.109,15.512 L 12.109,15.549 L 12.035,15.549 L 12.035,15.586 L 11.961,15.586 L 11.961,15.623 L 11.887,15.623 L 11.887,15.660 L 11.776,15.660 L 11.776,15.697 L 11.702,15.697 L 11.702,15.734 L 11.628,15.734 L 11.628,15.771 L 11.517,15.771 L 11.517,15.808 L 11.443,15.808 L 11.443,15.845 L 11.369,15.845 L 11.369,15.882 L 11.258,15.882 L 11.258,15.919 L 11.184,15.919 L 11.184,15.956 L 11.110,15.956 L 11.110,15.993 L 10.999,15.993 L 10.999,16.030 L 10.925,16.030 L 10.925,16.067 L 10.851,16.067 L 10.851,16.104 L 10.740,16.104 L 10.740,16.141 L 10.666,16.141 L 10.666,16.178 L 10.592,16.178 L 10.592,16.215 L 10.481,16.215 L 10.481,16.252 L 10.407,16.252 L 10.407,16.289 L 10.333,16.289 L 10.333,16.326 L 10.259,16.326 L 10.259,16.400 L 10.222,16.400 L 10.222,16.511 L 10.185,16.511 L 10.185,16.585 L 10.148,16.585 L 10.148,16.696 L 10.111,16.696 L 10.111,16.807 L 10.074,16.807 L 10.074,16.843 L 10.037,16.843 L 10.037,16.770 L 10.000,16.770 L 10.000,16.733 L 9.963,16.733 L 9.963,16.659 L 9.926,16.659 L 9.926,16.585 L 9.889,16.585 L 9.889,16.511 L 9.852,16.511 L 9.852,16.474 L 9.815,16.474 L 9.815,16.400 L 9.778,16.400 L 9.778,16.326 L 9.741,16.326 L 9.741,16.252 L 9.704,16.252 L 9.704,16.215 L 9.667,16.215 L 9.667,16.141 L 9.630,16.141 L 9.630,16.067 L 9.593,16.067 L 9.593,16.030 L 9.519,16.030 L 9.519,15.993 L 9.445,15.993 L 9.445,15.956 L 9.334,15.956 L 9.334,15.919 L 9.260,15.919 L 9.260,15.882 L 9.186,15.882 L 9.186,15.845 L 9.075,15.845 L 9.075,15.808 L 9.001,15.808 L 9.001,15.771 L 8.927,15.771 L 8.927,15.734 L 8.816,15.734 L 8.816,15.697 L 8.742,15.697 L 8.742,15.660 L 8.668,15.660 L 8.668,15.623 L 8.557,15.623 L 8.557,15.586 L 8.483,15.586 L 8.483,15.549 L 8.409,15.549 L 8.409,15.512 L 8.335,15.512 L 8.335,15.475 L 8.224,15.475 L 8.224,15.438 L 8.150,15.438 L 8.150,15.401 L 8.076,15.401 L 8.076,15.364 L 7.965,15.364 L 7.965,15.327 L 7.891,15.327 L 7.891,15.290 L 7.817,15.290 L 7.817,15.253 L 7.707,15.253 L 7.707,15.216 L 7.633,15.216 L 7.633,15.179 L 7.559,15.179 L 7.559,15.142 L 7.485,15.142 L 7.485,15.105 L 7.411,15.105 L 7.411,15.068 L 7.374,15.068 L 7.374,15.031 L 7.337,15.031 L 7.337,14.994 L 7.263,14.994 L 7.263,14.957 L 7.226,14.957 L 7.226,14.920 L 7.189,14.920 L 7.189,14.883 L 7.152,14.883 L 7.152,14.846 L 7.078,14.846 L 7.078,14.809 L 7.041,14.809 L 7.041,14.772 L 7.004,14.772 L 7.004,14.735 L 6.930,14.735 L 6.930,14.698 L 6.893,14.698 L 6.893,14.661 L 6.856,14.661 L 6.856,14.624 L 6.819,14.624 L 6.819,14.587 L 6.745,14.587 L 6.745,14.550 L 6.708,14.550 L 6.708,14.513 L 6.671,14.513 L 6.671,14.476 L 6.597,14.476 L 6.597,14.439 L 6.486,14.439 L 6.486,14.402 L 6.338,14.402 L 6.338,14.365 L 6.190,14.365 L 6.190,14.328 L 6.042,14.328 L 6.042,14.291 L 5.931,14.291 L 5.931,14.254 L 5.783,14.254 L 5.783,14.217 L 5.709,14.217 L 5.709,14.180 L 5.672,14.180 L 5.672,14.143 L 5.598,14.143 L 5.598,14.106 L 5.561,14.106 L 5.561,14.069 L 5.524,14.069 L 5.524,14.032 L 5.450,14.032 L 5.450,13.995 L 5.413,13.995 L 5.413,13.958 L 5.376,13.958 L 5.376,13.921 L 5.302,13.921 L 5.302,13.884 L 5.265,13.884 L 5.265,13.847 L 5.191,13.847 L 5.191,13.810 L 5.117,13.810 L 5.117,13.773 L 5.080,13.773 L 5.080,13.736 L 5.006,13.736 L 5.006,13.699 L 4.969,13.699 L 4.969,13.662 L 4.895,13.662 L 4.895,13.625 L 4.821,13.625 L 4.821,13.588 L 4.784,13.588 L 4.784,13.551 L 4.710,13.551 L 4.710,13.514 L 4.673,13.514 L 4.673,13.477 L 4.599,13.477 L 4.599,13.440 L 4.525,13.440 L 4.525,13.403 L 4.488,13.403 L 4.488,13.366 L 4.414,13.366 L 4.414,13.329 L 4.377,13.329 L 4.377,13.292 L 4.303,13.292 L 4.303,13.255 L 4.266,13.255 L 4.266,13.218 L 4.192,13.218 L 4.192,13.181 L 4.155,13.181 L 4.155,13.144 L 4.081,13.144 L 4.081,13.107 L 4.007,13.107 L 4.007,13.070 L 3.970,13.070 L 3.970,13.033 L 3.896,13.033 L 3.896,12.996 L 3.859,12.996 L 3.859,12.959 L 3.785,12.959 L 3.785,12.922 L 3.748,12.922 L 3.748,12.885 L 3.674,12.885 L 3.674,12.848 L 3.637,12.848 L 3.637,12.811 L 3.563,12.811 L 3.563,12.774 L 3.526,12.774 Z M 10.222,17.546 L 10.259,17.546 L 10.259,17.361 L 10.296,17.361 L 10.296,17.213 L 10.333,17.213 L 10.333,17.065 L 10.370,17.065 L 10.370,16.954 L 10.407,16.954 L 10.407,16.807 L 10.444,16.807 L 10.444,16.659 L 10.481,16.659 L 10.481,16.585 L 10.518,16.585 L 10.518,16.548 L 10.555,16.548 L 10.555,16.511 L 10.629,16.511 L 10.629,16.474 L 10.703,16.474 L 10.703,16.437 L 10.814,16.437 L 10.814,16.400 L 10.888,16.400 L 10.888,16.363 L 10.999,16.363 L 10.999,16.326 L 11.073,16.326 L 11.073,16.289 L 11.184,16.289 L 11.184,16.252 L 11.258,16.252 L 11.258,16.215 L 11.369,16.215 L 11.369,16.178 L 11.443,16.178 L 11.443,16.141 L 11.554,16.141 L 11.554,16.104 L 11.628,16.104 L 11.628,16.067 L 11.702,16.067 L 11.702,16.030 L 11.813,16.030 L 11.813,15.993 L 11.887,15.993 L 11.887,15.956 L 11.998,15.956 L 11.998,15.919 L 12.072,15.919 L 12.072,15.882 L 12.183,15.882 L 12.183,15.845 L 12.257,15.845 L 12.257,15.808 L 12.330,15.808 L 12.330,15.771 L 12.367,15.771 L 12.367,15.697 L 12.404,15.697 L 12.404,15.660 L 12.441,15.660 L 12.441,15.623 L 12.478,15.623 L 12.478,15.549 L 12.515,15.549 L 12.515,15.512 L 12.552,15.512 L 12.552,15.475 L 12.589,15.475 L 12.589,15.401 L 12.626,15.401 L 12.626,15.364 L 12.663,15.364 L 12.663,15.290 L 12.700,15.290 L 12.700,15.253 L 12.737,15.253 L 12.737,15.216 L 12.774,15.216 L 12.774,15.142 L 12.811,15.142 L 12.811,15.105 L 12.848,15.105 L 12.848,15.031 L 12.885,15.031 L 12.885,14.994 L 12.922,14.994 L 12.922,14.957 L 13.033,14.957 L 13.033,14.920 L 13.144,14.920 L 13.144,14.883 L 13.218,14.883 L 13.218,14.846 L 13.329,14.846 L 13.329,14.809 L 13.403,14.809 L 13.403,14.772 L 13.514,14.772 L 13.514,14.735 L 13.625,14.735 L 13.625,14.698 L 13.699,14.698 L 13.699,14.661 L 13.810,14.661 L 13.810,14.624 L 13.921,14.624 L 13.921,14.587 L 13.995,14.587 L 13.995,14.550 L 14.106,14.550 L 14.106,14.513 L 14.217,14.513 L 14.217,14.476 L 14.291,14.476 L 14.291,14.439 L 14.402,14.439 L 14.402,14.402 L 14.513,14.402 L 14.513,14.365 L 14.587,14.365 L 14.587,14.328 L 14.698,14.328 L 14.698,14.291 L 14.809,14.291 L 14.809,14.254 L 14.883,14.254 L 14.883,14.217 L 14.994,14.217 L 14.994,14.180 L 15.105,14.180 L 15.105,14.143 L 15.179,14.143 L 15.179,14.106 L 15.216,14.106 L 15.216,14.032 L 15.253,14.032 L 15.253,13.995 L 15.290,13.995 L 15.290,13.958 L 15.327,13.958 L 15.327,13.884 L 15.364,13.884 L 15.364,13.847 L 15.401,13.847 L 15.401,13.773 L 15.438,13.773 L 15.438,13.736 L 15.475,13.736 L 15.475,13.699 L 15.512,13.699 L 15.512,13.625 L 15.549,13.625 L 15.549,13.588 L 15.586,13.588 L 15.586,13.551 L 15.623,13.551 L 15.623,13.477 L 15.660,13.477 L 15.660,13.440 L 15.697,13.440 L 15.697,13.403 L 15.734,13.403 L 15.734,13.329 L 15.771,13.329 L 15.771,13.292 L 15.808,13.292 L 15.808,13.255 L 15.845,13.255 L 15.845,13.181 L 15.882,13.181 L 15.882,13.144 L 15.919,13.144 L 15.919,13.107 L 15.956,13.107 L 15.956,13.033 L 15.993,13.033 L 15.993,12.996 L 16.030,12.996 L 16.030,12.959 L 16.067,12.959 L 16.067,12.885 L 16.104,12.885 L 16.104,12.848 L 16.215,12.848 L 16.215,12.885 L 16.326,12.885 L 16.326,12.922 L 16.437,12.922 L 16.437,12.959 L 16.548,12.959 L 16.548,12.996 L 16.659,12.996 L 16.659,13.033 L 16.770,13.033 L 16.770,13.070 L 16.843,13.070 L 16.843,13.107 L 16.954,13.107 L 16.954,13.144 L 17.065,13.144 L 17.065,13.181 L 17.176,13.181 L 17.176,13.218 L 17.287,13.218 L 17.287,13.255 L 17.361,13.255 L 17.361,13.292 L 17.472,13.292 L 17.472,13.329 L 17.583,13.329 L 17.583,13.366 L 17.657,13.366 L 17.657,13.403 L 17.768,13.403 L 17.768,13.440 L 17.879,13.440 L 17.879,13.477 L 17.990,13.477 L 17.990,13.514 L 18.064,13.514 L 18.064,13.551 L 18.175,13.551 L 18.175,13.588 L 18.212,13.588 L 18.212,13.662 L 18.249,13.662 L 18.249,13.736 L 18.286,13.736 L 18.286,13.810 L 18.323,13.810 L 18.323,13.884 L 18.360,13.884 L 18.360,13.958 L 18.397,13.958 L 18.397,14.032 L 18.434,14.032 L 18.434,14.106 L 18.471,14.106 L 18.471,14.180 L 18.508,14.180 L 18.508,14.254 L 18.545,14.254 L 18.545,14.328 L 18.582,14.328 L 18.582,14.402 L 18.619,14.402 L 18.619,14.513 L 18.656,14.513 L 18.656,14.587 L 18.693,14.587 L 18.693,14.661 L 18.730,14.661 L 18.730,14.735 L 18.767,14.735 L 18.767,14.809 L 18.804,14.809 L 18.804,14.883 L 18.841,14.883 L 18.841,14.957 L 18.878,14.957 L 18.878,15.031 L 18.915,15.031 L 18.915,15.105 L 18.952,15.105 L 18.952,15.216 L 18.989,15.216 L 18.989,15.290 L 19.026,15.290 L 19.026,15.364 L 19.063,15.364 L 19.063,15.438 L 19.100,15.438 L 19.100,18.619 L 19.063,18.619 L 19.063,18.656 L 10.296,18.656 L 10.296,18.619 L 10.259,18.619 L 10.259,17.805 L 10.222,17.805 Z M 6.042,8.187 L 6.079,8.187 L 6.079,7.707 L 6.116,7.707 L 6.116,7.226 L 6.153,7.226 L 6.153,6.782 L 6.190,6.782 L 6.190,6.745 L 6.227,6.745 L 6.227,6.708 L 6.264,6.708 L 6.264,6.671 L 6.301,6.671 L 6.301,6.634 L 6.375,6.634 L 6.375,6.597 L 6.412,6.597 L 6.412,6.560 L 6.449,6.560 L 6.449,6.523 L 6.486,6.523 L 6.486,6.486 L 6.523,6.486 L 6.523,6.227 L 6.560,6.227 L 6.560,5.931 L 6.597,5.931 L 6.597,5.635 L 6.634,5.635 L 6.634,5.376 L 6.671,5.376 L 6.671,5.117 L 6.708,5.117 L 6.708,4.821 L 6.745,4.821 L 6.745,4.562 L 6.782,4.562 L 6.782,4.303 L 6.819,4.303 L 6.819,4.044 L 6.856,4.044 L 6.856,3.748 L 6.893,3.748 L 6.893,3.526 L 6.930,3.526 L 6.930,3.341 L 6.967,3.341 L 6.967,3.267 L 7.004,3.267 L 7.004,3.193 L 7.041,3.193 L 7.041,3.157 L 7.078,3.157 L 7.078,3.083 L 7.115,3.083 L 7.115,3.046 L 7.152,3.046 L 7.152,2.972 L 7.189,2.972 L 7.189,2.935 L 7.226,2.935 L 7.226,2.861 L 7.263,2.861 L 7.263,2.787 L 7.300,2.787 L 7.300,2.750 L 7.337,2.750 L 7.337,2.676 L 7.374,2.676 L 7.374,2.639 L 7.411,2.639 L 7.411,2.565 L 7.448,2.565 L 7.448,2.491 L 7.485,2.491 L 7.485,2.454 L 7.522,2.454 L 7.522,2.380 L 7.559,2.380 L 7.559,2.306 L 7.596,2.306 L 7.596,2.269 L 7.633,2.269 L 7.633,2.195 L 7.670,2.195 L 7.670,2.121 L 7.707,2.121 L 7.707,2.084 L 7.743,2.084 L 7.743,2.010 L 7.780,2.010 L 7.780,1.936 L 7.817,1.936 L 7.817,1.862 L 7.854,1.862 L 7.854,1.825 L 7.891,1.825 L 7.891,1.751 L 7.928,1.751 L 7.928,1.714 L 7.965,1.714 L 7.965,1.677 L 8.002,1.677 L 8.002,1.640 L 8.150,1.640 L 8.150,1.603 L 8.298,1.603 L 8.298,1.566 L 8.483,1.566 L 8.483,1.529 L 8.668,1.529 L 8.668,1.492 L 8.853,1.492 L 8.853,1.455 L 9.038,1.455 L 9.038,1.418 L 9.186,1.418 L 9.186,1.381 L 9.371,1.381 L 9.371,1.344 L 9.593,1.344 L 9.593,1.381 L 9.704,1.381 L 9.704,1.418 L 9.815,1.418 L 9.815,1.455 L 9.926,1.455 L 9.926,1.492 L 10.000,1.492 L 10.000,1.529 L 10.111,1.529 L 10.111,1.566 L 10.222,1.566 L 10.222,1.603 L 10.333,1.603 L 10.333,1.640 L 10.407,1.640 L 10.407,1.677 L 10.518,1.677 L 10.518,1.714 L 10.629,1.714 L 10.629,1.751 L 10.740,1.751 L 10.740,1.788 L 10.851,1.788 L 10.851,1.825 L 10.925,1.825 L 10.925,1.862 L 11.036,1.862 L 11.036,1.899 L 11.147,1.899 L 11.147,1.936 L 11.258,1.936 L 11.258,1.973 L 11.369,1.973 L 11.369,2.010 L 11.443,2.010 L 11.443,2.047 L 11.554,2.047 L 11.554,2.084 L 11.665,2.084 L 11.665,2.121 L 11.776,2.121 L 11.776,2.158 L 11.887,2.158 L 11.887,2.195 L 11.961,2.195 L 11.961,2.232 L 12.072,2.232 L 12.072,2.269 L 12.183,2.269 L 12.183,2.306 L 12.257,2.306 L 12.257,2.343 L 12.330,2.343 L 12.330,2.380 L 12.367,2.380 L 12.367,2.454 L 12.404,2.454 L 12.404,2.491 L 12.441,2.491 L 12.441,2.602 L 12.478,2.602 L 12.478,2.713 L 12.515,2.713 L 12.515,2.787 L 12.552,2.787 L 12.552,2.898 L 12.589,2.898 L 12.589,3.009 L 12.626,3.009 L 12.626,3.120 L 12.663,3.120 L 12.663,3.230 L 12.700,3.230 L 12.700,3.341 L 12.737,3.341 L 12.737,3.452 L 12.774,3.452 L 12.774,3.563 L 12.811,3.563 L 12.811,3.674 L 12.848,3.674 L 12.848,3.785 L 12.885,3.785 L 12.885,3.896 L 12.922,3.896 L 12.922,3.970 L 12.959,3.970 L 12.959,4.081 L 12.996,4.081 L 12.996,4.192 L 13.033,4.192 L 13.033,4.303 L 13.070,4.303 L 13.070,4.414 L 13.107,4.414 L 13.107,4.525 L 13.144,4.525 L 13.144,4.821 L 13.181,4.821 L 13.181,5.154 L 13.218,5.154 L 13.218,5.450 L 13.255,5.450 L 13.255,5.783 L 13.292,5.783 L 13.292,6.079 L 13.329,6.079 L 13.329,6.412 L 13.366,6.412 L 13.366,6.449 L 13.403,6.449 L 13.403,6.486 L 13.440,6.486 L 13.440,6.523 L 13.477,6.523 L 13.477,6.560 L 13.514,6.560 L 13.514,6.597 L 13.588,6.597 L 13.588,6.634 L 13.625,6.634 L 13.625,6.671 L 13.662,6.671 L 13.662,6.708 L 13.699,6.708 L 13.699,7.004 L 13.736,7.004 L 13.736,7.448 L 13.773,7.448 L 13.773,7.891 L 13.810,7.891 L 13.810,8.187 L 13.773,8.187 L 13.773,8.224 L 13.736,8.224 L 13.736,8.298 L 13.699,8.298 L 13.699,8.335 L 13.662,8.335 L 13.662,8.372 L 13.625,8.372 L 13.625,8.409 L 13.588,8.409 L 13.588,8.446 L 13.551,8.446 L 13.551,8.520 L 13.514,8.520 L 13.514,8.557 L 13.477,8.557 L 13.477,8.594 L 13.440,8.594 L 13.440,8.631 L 13.403,8.631 L 13.403,8.668 L 13.366,8.668 L 13.366,8.705 L 13.329,8.705 L 13.329,8.779 L 13.292,8.779 L 13.292,8.816 L 13.255,8.816 L 13.255,8.853 L 13.218,8.853 L 13.218,8.890 L 13.181,8.890 L 13.181,8.927 L 13.144,8.927 L 13.144,9.038 L 13.107,9.038 L 13.107,9.519 L 13.070,9.519 L 13.070,9.963 L 13.033,9.963 L 13.033,10.555 L 12.996,10.555 L 12.996,10.962 L 13.033,10.962 L 13.033,11.850 L 12.996,11.850 L 12.996,11.887 L 12.959,11.887 L 12.959,11.924 L 12.922,11.924 L 12.922,11.998 L 12.885,11.998 L 12.885,12.035 L 12.848,12.035 L 12.848,12.072 L 12.811,12.072 L 12.811,12.109 L 12.774,12.109 L 12.774,12.146 L 12.737,12.146 L 12.737,12.220 L 12.700,12.220 L 12.700,12.257 L 12.663,12.257 L 12.663,12.293 L 12.626,12.293 L 12.626,12.330 L 12.589,12.330 L 12.589,12.367 L 12.552,12.367 L 12.552,12.441 L 12.515,12.441 L 12.515,12.478 L 12.478,12.478 L 12.478,12.515 L 12.441,12.515 L 12.441,12.552 L 12.404,12.552 L 12.404,12.589 L 12.367,12.589 L 12.367,12.626 L 12.330,12.626 L 12.330,12.700 L 12.293,12.700 L 12.293,12.737 L 12.257,12.737 L 12.257,12.774 L 12.220,12.774 L 12.220,12.811 L 12.183,12.811 L 12.183,12.848 L 12.146,12.848 L 12.146,12.885 L 12.109,12.885 L 12.109,12.959 L 12.072,12.959 L 12.072,12.996 L 12.035,12.996 L 12.035,13.033 L 11.998,13.033 L 11.998,13.070 L 11.961,13.070 L 11.961,13.107 L 11.924,13.107 L 11.924,13.144 L 11.887,13.144 L 11.887,13.218 L 11.850,13.218 L 11.850,13.255 L 11.813,13.255 L 11.813,13.292 L 11.776,13.292 L 11.776,13.329 L 11.739,13.329 L 11.739,13.366 L 11.702,13.366 L 11.702,13.403 L 11.665,13.403 L 11.665,13.440 L 11.332,13.440 L 11.332,13.477 L 10.851,13.477 L 10.851,13.514 L 10.407,13.514 L 10.407,13.551 L 9.556,13.551 L 9.556,13.514 L 9.260,13.514 L 9.260,13.477 L 8.927,13.477 L 8.927,13.440 L 8.631,13.440 L 8.631,13.403 L 8.261,13.403 L 8.261,13.366 L 8.039,13.366 L 8.039,13.329 L 8.002,13.329 L 8.002,13.292 L 7.965,13.292 L 7.965,13.255 L 7.928,13.255 L 7.928,13.181 L 7.891,13.181 L 7.891,13.144 L 7.854,13.144 L 7.854,13.107 L 7.817,13.107 L 7.817,13.033 L 7.780,13.033 L 7.780,12.996 L 7.743,12.996 L 7.743,12.959 L 7.707,12.959 L 7.707,12.922 L 7.670,12.922 L 7.670,12.848 L 7.633,12.848 L 7.633,12.811 L 7.596,12.811 L 7.596,12.774 L 7.559,12.774 L 7.559,12.700 L 7.522,12.700 L 7.522,12.663 L 7.485,12.663 L 7.485,12.626 L 7.448,12.626 L 7.448,12.589 L 7.411,12.589 L 7.411,12.515 L 7.374,12.515 L 7.374,12.478 L 7.337,12.478 L 7.337,12.441 L 7.300,12.441 L 7.300,12.367 L 7.263,12.367 L 7.263,12.330 L 7.226,12.330 L 7.226,12.293 L 7.189,12.293 L 7.189,12.257 L 7.152,12.257 L 7.152,12.183 L 7.115,12.183 L 7.115,12.146 L 7.078,12.146 L 7.078,12.109 L 7.041,12.109 L 7.041,12.072 L 7.004,12.072 L 7.004,11.998 L 6.967,11.998 L 6.967,11.961 L 6.930,11.961 L 6.930,11.924 L 6.893,11.924 L 6.893,11.850 L 6.856,11.850 L 6.856,9.889 L 6.819,9.889 L 6.819,9.482 L 6.782,9.482 L 6.782,9.149 L 6.745,9.149 L 6.745,9.001 L 6.708,9.001 L 6.708,8.964 L 6.671,8.964 L 6.671,8.927 L 6.634,8.927 L 6.634,8.890 L 6.597,8.890 L 6.597,8.853 L 6.560,8.853 L 6.560,8.816 L 6.523,8.816 L 6.523,8.779 L 6.486,8.779 L 6.486,8.705 L 6.449,8.705 L 6.449,8.668 L 6.412,8.668 L 6.412,8.631 L 6.375,8.631 L 6.375,8.594 L 6.338,8.594 L 6.338,8.557 L 6.301,8.557 L 6.301,8.520 L 6.264,8.520 L 6.264,8.483 L 6.227,8.483 L 6.227,8.446 L 6.190,8.446 L 6.190,8.409 L 6.153,8.409 L 6.153,8.372 L 6.116,8.372 L 6.116,8.335 L 6.079,8.335 L 6.079,8.298 L 6.042,8.298 Z M 7.300,5.968 L 7.300,6.116 L 7.337,6.116 L 7.337,6.227 L 7.374,6.227 L 7.374,6.264 L 7.448,6.264 L 7.448,6.301 L 7.485,6.301 L 7.485,6.338 L 7.522,6.338 L 7.522,6.375 L 7.559,6.375 L 7.559,6.412 L 7.596,6.412 L 7.596,6.449 L 7.670,6.449 L 7.670,6.486 L 7.707,6.486 L 7.707,6.523 L 7.743,6.523 L 7.743,6.560 L 8.520,6.560 L 8.520,6.523 L 8.927,6.523 L 8.927,6.486 L 8.964,6.486 L 8.964,6.412 L 9.001,6.412 L 9.001,6.375 L 9.038,6.375 L 9.038,6.301 L 9.075,6.301 L 9.075,6.190 L 9.112,6.190 L 9.112,6.079 L 9.149,6.079 L 9.149,5.709 L 9.038,5.709 L 9.038,5.672 L 8.705,5.672 L 8.705,5.635 L 8.335,5.635 L 8.335,5.598 L 7.743,5.598 L 7.743,5.635 L 7.707,5.635 L 7.707,5.672 L 7.670,5.672 L 7.670,5.709 L 7.596,5.709 L 7.596,5.746 L 7.559,5.746 L 7.559,5.783 L 7.522,5.783 L 7.522,5.820 L 7.485,5.820 L 7.485,5.857 L 7.448,5.857 L 7.448,5.894 L 7.374,5.894 L 7.374,5.931 L 7.337,5.931 L 7.337,5.968 Z M 10.703,5.709 L 10.703,5.931 L 10.740,5.931 L 10.740,6.153 L 10.777,6.153 L 10.777,6.264 L 10.814,6.264 L 10.814,6.338 L 10.851,6.338 L 10.851,6.412 L 10.888,6.412 L 10.888,6.449 L 10.925,6.449 L 10.925,6.486 L 10.962,6.486 L 10.962,6.523 L 12.146,6.523 L 12.146,6.486 L 12.183,6.486 L 12.183,6.449 L 12.257,6.449 L 12.257,6.412 L 12.293,6.412 L 12.293,6.375 L 12.330,6.375 L 12.330,6.338 L 12.367,6.338 L 12.367,6.301 L 12.404,6.301 L 12.404,6.264 L 12.441,6.264 L 12.441,6.227 L 12.515,6.227 L 12.515,6.190 L 12.552,6.190 L 12.552,5.931 L 12.515,5.931 L 12.515,5.894 L 12.441,5.894 L 12.441,5.857 L 12.404,5.857 L 12.404,5.820 L 12.367,5.820 L 12.367,5.783 L 12.330,5.783 L 12.330,5.746 L 12.257,5.746 L 12.257,5.709 L 12.220,5.709 L 12.220,5.672 L 12.183,5.672 L 12.183,5.635 L 12.146,5.635 L 12.146,5.598 L 12.072,5.598 L 12.072,5.561 L 11.924,5.561 L 11.924,5.598 L 11.480,5.598 L 11.480,5.635 L 11.147,5.635 L 11.147,5.672 L 10.814,5.672 L 10.814,5.709 Z M 7.965,10.296 L 7.965,10.629 L 8.002,10.629 L 8.002,10.666 L 8.187,10.666 L 8.187,10.629 L 8.372,10.629 L 8.372,10.592 L 11.554,10.592 L 11.554,10.629 L 11.739,10.629 L 11.739,10.666 L 11.887,10.666 L 11.887,10.629 L 11.924,10.629 L 11.924,10.259 L 11.850,10.259 L 11.850,10.222 L 11.813,10.222 L 11.813,10.185 L 11.776,10.185 L 11.776,10.148 L 11.739,10.148 L 11.739,10.111 L 11.665,10.111 L 11.665,10.074 L 11.628,10.074 L 11.628,10.037 L 11.591,10.037 L 11.591,10.000 L 11.517,10.000 L 11.517,9.963 L 11.406,9.963 L 11.406,9.926 L 8.520,9.926 L 8.520,9.963 L 8.409,9.963 L 8.409,10.000 L 8.335,10.000 L 8.335,10.037 L 8.298,10.037 L 8.298,10.074 L 8.224,10.074 L 8.224,10.111 L 8.187,10.111 L 8.187,10.148 L 8.150,10.148 L 8.150,10.185 L 8.113,10.185 L 8.113,10.222 L 8.039,10.222 L 8.039,10.259 L 8.002,10.259 L 8.002,10.296 Z" fill="#000000" fill-rule="nonzero"/>
</svg>
