<?xml version="1.0" encoding="UTF-8"?>
<svg xmlns="http://www.w3.org/2000/svg" width="20.0mm" height="20.0mm" viewBox="0 0 20.0 20.0">
  <title>Adult Brass Dragon</title>
  <path d="M 16.511,4.708 L 16.511,4.784 L 16.587,4.784 L 16.587,4.860 L 16.739,4.860 L 16.739,4.936 L 16.892,4.936 L 16.892,5.012 L 17.044,5.012 L 17.044,5.088 L 17.196,5.088 L 17.196,5.164 L 17.272,5.164 L 17.272,5.241 L 17.425,5.241 L 17.425,5.317 L 17.501,5.317 L 17.501,5.393 L 17.577,5.393 L 17.577,5.469 L 17.653,5.469 L 17.653,5.545 L 17.729,5.545 L 17.729,5.621 L 17.805,5.621 L 17.805,5.697 L 17.882,5.697 L 17.882,5.774 L 17.958,5.774 L 17.958,5.926 L 18.034,5.926 L 18.034,5.774 L 18.110,5.774 L 18.110,5.545 L 18.186,5.545 L 18.186,5.164 L 18.262,5.164 L 18.262,4.784 L 18.338,4.784 L 18.338,4.098 L 18.415,4.098 L 18.415,3.489 L 18.338,3.489 L 18.338,3.337 L 18.262,3.337 L 18.262,3.489 L 18.186,3.489 L 18.186,3.565 L 18.110,3.565 L 18.110,3.641 L 18.034,3.641 L 18.034,3.718 L 17.958,3.718 L 17.958,3.794 L 17.805,3.794 L 17.805,3.870 L 17.729,3.870 L 17.729,3.946 L 17.653,3.946 L 17.653,4.022 L 17.501,4.022 L 17.501,4.098 L 17.425,4.098 L 17.425,4.174 L 17.272,4.174 L 17.272,4.251 L 17.196,4.251 L 17.196,4.327 L 17.044,4.327 L 17.044,4.403 L 16.968,4.403 L 16.968,4.479 L 16.815,4.479 L 16.815,4.555 L 16.739,4.555 L 16.739,4.631 L 16.663,4.631 L 16.663,4.708 Z M 6.764,14.455 L 6.840,14.455 L 6.840,14.303 L 6.916,14.303 L 6.916,14.074 L 6.992,14.074 L 6.992,13.769 L 7.068,13.769 L 7.068,13.465 L 7.297,13.465 L 7.297,13.541 L 7.449,13.541 L 7.449,13.617 L 7.677,13.617 L 7.677,13.693 L 7.906,13.693 L 7.906,13.769 L 8.134,13.769 L 8.134,13.846 L 8.439,13.846 L 8.439,13.922 L 8.820,13.922 L 8.820,13.998 L 9.429,13.998 L 9.429,14.074 L 10.647,14.074 L 10.647,13.998 L 11.180,13.998 L 11.180,13.922 L 11.561,13.922 L 11.561,13.846 L 11.942,13.846 L 11.942,13.769 L 12.170,13.769 L 12.170,13.693 L 12.399,13.693 L 12.399,13.617 L 12.551,13.617 L 12.551,13.541 L 12.779,13.541 L 12.779,13.465 L 12.932,13.465 L 12.932,13.541 L 13.008,13.541 L 13.008,13.846 L 13.084,13.846 L 13.084,14.150 L 13.160,14.150 L 13.160,14.303 L 13.236,14.303 L 13.236,14.531 L 13.313,14.531 L 13.313,14.683 L 13.236,14.683 L 13.236,14.759 L 13.160,14.759 L 13.160,14.836 L 13.008,14.836 L 13.008,14.912 L 12.932,14.912 L 12.932,14.988 L 12.779,14.988 L 12.779,15.064 L 12.627,15.064 L 12.627,15.140 L 12.475,15.140 L 12.475,15.216 L 12.323,15.216 L 12.323,15.292 L 12.094,15.292 L 12.094,15.369 L 11.942,15.369 L 11.942,15.445 L 11.713,15.445 L 11.713,15.521 L 11.485,15.521 L 11.485,15.597 L 11.180,15.597 L 11.180,15.673 L 10.800,15.673 L 10.800,15.749 L 10.267,15.749 L 10.267,15.826 L 9.733,15.826 L 9.733,15.749 L 9.200,15.749 L 9.200,15.673 L 8.820,15.673 L 8.820,15.597 L 8.591,15.597 L 8.591,15.521 L 8.363,15.521 L 8.363,15.445 L 8.134,15.445 L 8.134,15.369 L 7.906,15.369 L 7.906,15.292 L 7.754,15.292 L 7.754,15.216 L 7.601,15.216 L 7.601,15.140 L 7.449,15.140 L 7.449,15.064 L 7.297,15.064 L 7.297,14.988 L 7.144,14.988 L 7.144,14.912 L 6.992,14.912 L 6.992,14.836 L 6.916,14.836 L 6.916,14.759 L 6.764,14.759 Z M 1.052,3.185 L 1.128,3.185 L 1.128,2.499 L 1.205,2.499 L 1.205,2.118 L 1.281,2.118 L 1.281,1.890 L 1.357,1.890 L 1.357,1.738 L 1.433,1.738 L 1.433,1.585 L 1.509,1.585 L 1.509,1.509 L 1.585,1.509 L 1.585,1.357 L 1.662,1.357 L 1.662,1.281 L 1.738,1.281 L 1.738,1.205 L 1.814,1.205 L 1.814,1.128 L 1.890,1.128 L 1.890,1.052 L 1.966,1.052 L 1.966,0.976 L 2.042,0.976 L 2.042,0.900 L 2.423,0.900 L 2.423,1.585 L 2.499,1.585 L 2.499,1.814 L 2.575,1.814 L 2.575,1.966 L 2.651,1.966 L 2.651,2.042 L 2.728,2.042 L 2.728,2.195 L 2.804,2.195 L 2.804,2.271 L 2.880,2.271 L 2.880,2.347 L 2.956,2.347 L 2.956,2.423 L 3.108,2.423 L 3.108,2.499 L 3.185,2.499 L 3.185,2.575 L 3.337,2.575 L 3.337,2.651 L 3.489,2.651 L 3.489,2.728 L 3.718,2.728 L 3.718,2.804 L 3.946,2.804 L 3.946,2.880 L 4.174,2.880 L 4.174,2.956 L 4.479,2.956 L 4.479,3.032 L 4.784,3.032 L 4.784,3.108 L 5.088,3.108 L 5.088,3.185 L 5.393,3.185 L 5.393,3.261 L 5.621,3.261 L 5.621,3.337 L 5.850,3.337 L 5.850,3.413 L 6.078,3.413 L 6.078,3.489 L 6.231,3.489 L 6.231,3.565 L 6.383,3.565 L 6.383,3.641 L 6.535,3.641 L 6.535,3.718 L 6.687,3.718 L 6.687,3.794 L 6.764,3.794 L 6.764,3.870 L 6.916,3.870 L 6.916,3.946 L 6.992,3.946 L 6.992,4.022 L 7.068,4.022 L 7.068,4.098 L 7.144,4.098 L 7.144,4.174 L 7.221,4.174 L 7.221,4.251 L 7.297,4.251 L 7.297,4.327 L 7.373,4.327 L 7.373,4.403 L 7.449,4.403 L 7.449,4.479 L 7.525,4.479 L 7.525,4.555 L 7.677,4.555 L 7.677,4.479 L 7.754,4.479 L 7.754,4.403 L 7.830,4.403 L 7.830,4.327 L 7.906,4.327 L 7.906,4.251 L 8.058,4.251 L 8.058,4.174 L 8.210,4.174 L 8.210,4.098 L 8.439,4.098 L 8.439,4.022 L 8.667,4.022 L 8.667,3.946 L 8.896,3.946 L 8.896,3.870 L 9.048,3.870 L 9.048,3.794 L 9.124,3.794 L 9.124,3.718 L 9.200,3.718 L 9.200,3.565 L 9.277,3.565 L 9.277,3.413 L 9.353,3.413 L 9.353,3.261 L 9.429,3.261 L 9.429,3.108 L 9.505,3.108 L 9.505,3.032 L 9.581,3.032 L 9.581,2.880 L 9.657,2.880 L 9.657,2.804 L 9.810,2.804 L 9.810,2.728 L 10.267,2.728 L 10.267,2.804 L 10.343,2.804 L 10.343,2.880 L 10.419,2.880 L 10.419,2.956 L 10.495,2.956 L 10.495,3.032 L 10.571,3.032 L 10.571,3.185 L 10.647,3.185 L 10.647,3.337 L 10.723,3.337 L 10.723,3.489 L 10.800,3.489 L 10.800,3.641 L 10.876,3.641 L 10.876,3.718 L 10.952,3.718 L 10.952,3.794 L 11.028,3.794 L 11.028,3.870 L 11.180,3.870 L 11.180,3.946 L 11.333,3.946 L 11.333,4.022 L 11.637,4.022 L 11.637,4.098 L 11.866,4.098 L 11.866,4.174 L 12.018,4.174 L 12.018,4.251 L 12.094,4.251 L 12.094,4.327 L 12.246,4.327 L 12.246,4.403 L 12.323,4.403 L 12.323,4.479 L 12.399,4.479 L 12.399,4.555 L 12.551,4.555 L 12.551,4.403 L 12.627,4.403 L 12.627,4.327 L 12.703,4.327 L 12.703,4.251 L 12.779,4.251 L 12.779,4.174 L 12.856,4.174 L 12.856,4.098 L 12.932,4.098 L 12.932,4.022 L 13.084,4.022 L 13.084,3.946 L 13.160,3.946 L 13.160,3.870 L 13.236,3.870 L 13.236,3.794 L 13.389,3.794 L 13.389,3.718 L 13.541,3.718 L 13.541,3.641 L 13.693,3.641 L 13.693,3.565 L 13.846,3.565 L 13.846,3.489 L 13.998,3.489 L 13.998,3.413 L 14.226,3.413 L 14.226,3.337 L 14.455,3.337 L 14.455,3.261 L 14.683,3.261 L 14.683,3.185 L 14.912,3.185 L 14.912,3.108 L 15.216,3.108 L 15.216,3.032 L 15.597,3.032 L 15.597,2.956 L 15.826,2.956 L 15.826,2.880 L 16.130,2.880 L 16.130,2.804 L 16.359,2.804 L 16.359,2.728 L 16.511,2.728 L 16.511,2.651 L 16.739,2.651 L 16.739,2.575 L 16.815,2.575 L 16.815,2.499 L 16.968,2.499 L 16.968,2.423 L 17.044,2.423 L 17.044,2.347 L 17.120,2.347 L 17.120,2.271 L 17.196,2.271 L 17.196,2.195 L 17.272,2.195 L 17.272,2.118 L 17.349,2.118 L 17.349,2.042 L 17.425,2.042 L 17.425,1.890 L 17.501,1.890 L 17.501,1.738 L 17.577,1.738 L 17.577,1.433 L 17.653,1.433 L 17.653,0.900 L 17.958,0.900 L 17.958,0.976 L 18.110,0.976 L 18.110,1.052 L 18.186,1.052 L 18.186,1.128 L 18.262,1.128 L 18.262,1.205 L 18.338,1.205 L 18.338,1.281 L 18.415,1.281 L 18.415,1.357 L 18.491,1.357 L 18.491,1.509 L 18.567,1.509 L 18.567,1.662 L 18.643,1.662 L 18.643,1.814 L 18.719,1.814 L 18.719,1.966 L 18.795,1.966 L 18.795,2.195 L 18.872,2.195 L 18.872,2.575 L 18.948,2.575 L 18.948,4.708 L 18.872,4.708 L 18.872,5.164 L 18.795,5.164 L 18.795,5.469 L 18.719,5.469 L 18.719,5.774 L 18.643,5.774 L 18.643,6.078 L 18.567,6.078 L 18.567,6.307 L 18.491,6.307 L 18.491,6.535 L 18.415,6.535 L 18.415,6.687 L 18.338,6.687 L 18.338,6.916 L 18.262,6.916 L 18.262,7.068 L 18.186,7.068 L 18.186,7.144 L 18.110,7.144 L 18.110,7.297 L 18.034,7.297 L 18.034,7.449 L 17.958,7.449 L 17.958,7.525 L 17.882,7.525 L 17.882,7.677 L 17.805,7.677 L 17.805,7.754 L 17.729,7.754 L 17.729,7.906 L 17.653,7.906 L 17.653,7.982 L 17.577,7.982 L 17.577,8.058 L 17.501,8.058 L 17.501,8.134 L 17.425,8.134 L 17.425,8.210 L 17.349,8.210 L 17.349,8.287 L 17.272,8.287 L 17.272,8.363 L 17.196,8.363 L 17.196,8.439 L 17.120,8.439 L 17.120,8.515 L 17.044,8.515 L 17.044,8.591 L 16.968,8.591 L 16.968,8.667 L 16.892,8.667 L 16.892,8.744 L 16.815,8.744 L 16.815,8.820 L 16.663,8.820 L 16.663,8.896 L 16.587,8.896 L 16.587,8.972 L 16.435,8.972 L 16.435,9.048 L 16.282,9.048 L 16.282,9.124 L 16.130,9.124 L 16.130,9.200 L 15.902,9.200 L 15.902,9.277 L 15.749,9.277 L 15.749,9.505 L 15.826,9.505 L 15.826,9.657 L 15.902,9.657 L 15.902,9.810 L 15.978,9.810 L 15.978,9.886 L 16.054,9.886 L 16.054,10.038 L 16.130,10.038 L 16.130,10.114 L 16.206,10.114 L 16.206,10.190 L 16.359,10.190 L 16.359,10.267 L 16.435,10.267 L 16.435,10.343 L 16.511,10.343 L 16.511,10.419 L 16.587,10.419 L 16.587,10.571 L 16.511,10.571 L 16.511,10.647 L 16.359,10.647 L 16.359,10.723 L 16.054,10.723 L 16.054,10.800 L 15.597,10.800 L 15.597,10.876 L 15.369,10.876 L 15.369,10.952 L 15.292,10.952 L 15.292,11.485 L 15.369,11.485 L 15.369,11.637 L 15.445,11.637 L 15.445,11.790 L 15.521,11.790 L 15.521,11.866 L 15.597,11.866 L 15.597,12.018 L 15.673,12.018 L 15.673,12.094 L 15.749,12.094 L 15.749,12.323 L 15.673,12.323 L 15.673,12.399 L 15.216,12.399 L 15.216,12.475 L 14.912,12.475 L 14.912,12.551 L 14.759,12.551 L 14.759,12.703 L 14.683,12.703 L 14.683,13.008 L 14.759,13.008 L 14.759,13.465 L 14.836,13.465 L 14.836,13.769 L 14.912,13.769 L 14.912,13.998 L 14.988,13.998 L 14.988,14.226 L 15.064,14.226 L 15.064,14.379 L 15.140,14.379 L 15.140,14.531 L 15.216,14.531 L 15.216,14.683 L 15.292,14.683 L 15.292,14.836 L 15.369,14.836 L 15.369,14.988 L 15.445,14.988 L 15.445,15.140 L 15.521,15.140 L 15.521,15.216 L 15.597,15.216 L 15.597,15.369 L 15.673,15.369 L 15.673,15.445 L 15.749,15.445 L 15.749,15.597 L 15.826,15.597 L 15.826,15.673 L 15.902,15.673 L 15.902,15.749 L 15.978,15.749 L 15.978,15.902 L 16.054,15.902 L 16.054,15.978 L 16.130,15.978 L 16.130,16.054 L 16.206,16.054 L 16.206,16.130 L 16.282,16.130 L 16.282,16.282 L 16.359,16.282 L 16.359,16.359 L 16.206,16.359 L 16.206,16.435 L 16.130,16.435 L 16.130,16.511 L 16.054,16.511 L 16.054,16.587 L 15.902,16.587 L 15.902,16.663 L 15.826,16.663 L 15.826,16.739 L 15.749,16.739 L 15.749,16.815 L 15.673,16.815 L 15.673,16.892 L 15.521,16.892 L 15.521,16.968 L 15.445,16.968 L 15.445,17.120 L 15.369,17.120 L 15.369,17.196 L 15.292,17.196 L 15.292,17.272 L 15.216,17.272 L 15.216,17.349 L 15.140,17.349 L 15.140,17.501 L 15.064,17.501 L 15.064,17.577 L 14.988,17.577 L 14.988,17.653 L 14.912,17.653 L 14.912,17.729 L 14.836,17.729 L 14.836,17.805 L 14.759,17.805 L 14.759,17.882 L 14.683,17.882 L 14.683,17.958 L 14.607,17.958 L 14.607,18.034 L 14.455,18.034 L 14.455,18.110 L 14.379,18.110 L 14.379,18.186 L 14.226,18.186 L 14.226,18.262 L 14.074,18.262 L 14.074,18.338 L 13.998,18.338 L 13.998,18.415 L 13.769,18.415 L 13.769,18.491 L 13.617,18.491 L 13.617,18.567 L 13.389,18.567 L 13.389,18.643 L 13.160,18.643 L 13.160,18.719 L 12.932,18.719 L 12.932,18.795 L 12.551,18.795 L 12.551,18.872 L 12.170,18.872 L 12.170,18.948 L 11.713,18.948 L 11.713,19.024 L 10.876,19.024 L 10.876,19.100 L 9.124,19.100 L 9.124,19.024 L 8.363,19.024 L 8.363,18.948 L 7.830,18.948 L 7.830,18.872 L 7.449,18.872 L 7.449,18.795 L 7.144,18.795 L 7.144,18.719 L 6.916,18.719 L 6.916,18.643 L 6.611,18.643 L 6.611,18.567 L 6.459,18.567 L 6.459,18.491 L 6.231,18.491 L 6.231,18.415 L 6.078,18.415 L 6.078,18.338 L 5.926,18.338 L 5.926,18.262 L 5.774,18.262 L 5.774,18.186 L 5.697,18.186 L 5.697,18.110 L 5.545,18.110 L 5.545,18.034 L 5.469,18.034 L 5.469,17.958 L 5.317,17.958 L 5.317,17.882 L 5.241,17.882 L 5.241,17.805 L 5.164,17.805 L 5.164,17.729 L 5.088,17.729 L 5.088,17.577 L 5.012,17.577 L 5.012,17.501 L 4.936,17.501 L 4.936,17.425 L 4.860,17.425 L 4.860,17.272 L 4.784,17.272 L 4.784,17.196 L 4.708,17.196 L 4.708,17.120 L 4.631,17.120 L 4.631,17.044 L 4.555,17.044 L 4.555,16.968 L 4.479,16.968 L 4.479,16.892 L 4.403,16.892 L 4.403,16.815 L 4.327,16.815 L 4.327,16.739 L 4.251,16.739 L 4.251,16.663 L 4.174,16.663 L 4.174,16.587 L 4.022,16.587 L 4.022,16.511 L 3.946,16.511 L 3.946,16.435 L 3.794,16.435 L 3.794,16.359 L 3.718,16.359 L 3.718,16.206 L 3.794,16.206 L 3.794,16.130 L 3.870,16.130 L 3.870,16.054 L 3.946,16.054 L 3.946,15.902 L 4.022,15.902 L 4.022,15.826 L 4.098,15.826 L 4.098,15.749 L 4.174,15.749 L 4.174,15.673 L 4.251,15.673 L 4.251,15.521 L 4.327,15.521 L 4.327,15.445 L 4.403,15.445 L 4.403,15.292 L 4.479,15.292 L 4.479,15.216 L 4.555,15.216 L 4.555,15.064 L 4.631,15.064 L 4.631,14.912 L 4.708,14.912 L 4.708,14.836 L 4.784,14.836 L 4.784,14.683 L 4.860,14.683 L 4.860,14.531 L 4.936,14.531 L 4.936,14.303 L 5.012,14.303 L 5.012,14.150 L 5.088,14.150 L 5.088,13.922 L 5.164,13.922 L 5.164,13.693 L 5.241,13.693 L 5.241,13.389 L 5.317,13.389 L 5.317,12.551 L 5.164,12.551 L 5.164,12.475 L 4.784,12.475 L 4.784,12.399 L 4.403,12.399 L 4.403,12.323 L 4.327,12.323 L 4.327,12.246 L 4.251,12.246 L 4.251,12.170 L 4.327,12.170 L 4.327,12.094 L 4.403,12.094 L 4.403,11.942 L 4.479,11.942 L 4.479,11.866 L 4.555,11.866 L 4.555,11.713 L 4.631,11.713 L 4.631,11.637 L 4.708,11.637 L 4.708,11.409 L 4.784,11.409 L 4.784,10.952 L 4.708,10.952 L 4.708,10.876 L 4.479,10.876 L 4.479,10.800 L 3.946,10.800 L 3.946,10.723 L 3.718,10.723 L 3.718,10.647 L 3.565,10.647 L 3.565,10.571 L 3.489,10.571 L 3.489,10.419 L 3.565,10.419 L 3.565,10.343 L 3.641,10.343 L 3.641,10.267 L 3.718,10.267 L 3.718,10.190 L 3.794,10.190 L 3.794,10.114 L 3.870,10.114 L 3.870,10.038 L 3.946,10.038 L 3.946,9.962 L 4.022,9.962 L 4.022,9.886 L 4.098,9.886 L 4.098,9.733 L 4.174,9.733 L 4.174,9.657 L 4.251,9.657 L 4.251,9.429 L 4.327,9.429 L 4.327,9.277 L 4.174,9.277 L 4.174,9.200 L 3.946,9.200 L 3.946,9.124 L 3.794,9.124 L 3.794,9.048 L 3.641,9.048 L 3.641,8.972 L 3.489,8.972 L 3.489,8.896 L 3.337,8.896 L 3.337,8.820 L 3.261,8.820 L 3.261,8.744 L 3.185,8.744 L 3.185,8.667 L 3.032,8.667 L 3.032,8.591 L 2.956,8.591 L 2.956,8.515 L 2.880,8.515 L 2.880,8.439 L 2.804,8.439 L 2.804,8.363 L 2.728,8.363 L 2.728,8.287 L 2.651,8.287 L 2.651,8.210 L 2.575,8.210 L 2.575,8.058 L 2.499,8.058 L 2.499,7.982 L 2.423,7.982 L 2.423,7.906 L 2.347,7.906 L 2.347,7.830 L 2.271,7.830 L 2.271,7.677 L 2.195,7.677 L 2.195,7.601 L 2.118,7.601 L 2.118,7.449 L 2.042,7.449 L 2.042,7.373 L 1.966,7.373 L 1.966,7.221 L 1.890,7.221 L 1.890,7.068 L 1.814,7.068 L 1.814,6.916 L 1.738,6.916 L 1.738,6.764 L 1.662,6.764 L 1.662,6.611 L 1.585,6.611 L 1.585,6.383 L 1.509,6.383 L 1.509,6.078 L 1.433,6.078 L 1.433,5.850 L 1.357,5.850 L 1.357,5.545 L 1.281,5.545 L 1.281,5.241 L 1.205,5.241 L 1.205,4.784 L 1.128,4.784 L 1.128,4.098 L 1.052,4.098 Z M 3.565,8.134 L 3.565,8.363 L 3.641,8.363 L 3.641,8.439 L 3.794,8.439 L 3.794,8.515 L 3.946,8.515 L 3.946,8.591 L 4.251,8.591 L 4.251,8.515 L 4.403,8.515 L 4.403,8.439 L 4.555,8.439 L 4.555,8.363 L 4.631,8.363 L 4.631,8.287 L 4.784,8.287 L 4.784,8.210 L 4.860,8.210 L 4.860,8.134 L 4.936,8.134 L 4.936,8.058 L 5.012,8.058 L 5.012,7.906 L 5.088,7.906 L 5.088,7.830 L 5.164,7.830 L 5.164,7.677 L 5.241,7.677 L 5.241,7.601 L 5.317,7.601 L 5.317,7.449 L 5.393,7.449 L 5.393,7.297 L 5.317,7.297 L 5.317,7.068 L 5.241,7.068 L 5.241,6.916 L 5.164,6.916 L 5.164,6.840 L 5.088,6.840 L 5.088,6.916 L 4.860,6.916 L 4.860,6.992 L 4.631,6.992 L 4.631,7.068 L 4.479,7.068 L 4.479,7.144 L 4.403,7.144 L 4.403,7.221 L 4.251,7.221 L 4.251,7.297 L 4.174,7.297 L 4.174,7.373 L 4.098,7.373 L 4.098,7.449 L 4.022,7.449 L 4.022,7.525 L 3.946,7.525 L 3.946,7.677 L 3.870,7.677 L 3.870,7.754 L 3.794,7.754 L 3.794,7.906 L 3.718,7.906 L 3.718,7.982 L 3.641,7.982 L 3.641,8.134 Z M 6.231,16.739 L 6.307,16.739 L 6.307,16.587 L 6.383,16.587 L 6.383,16.511 L 6.459,16.511 L 6.459,16.282 L 6.535,16.282 L 6.535,16.130 L 6.611,16.130 L 6.611,15.978 L 6.687,15.978 L 6.687,15.749 L 6.764,15.749 L 6.764,15.445 L 6.992,15.445 L 6.992,15.521 L 7.144,15.521 L 7.144,15.597 L 7.297,15.597 L 7.297,15.673 L 7.449,15.673 L 7.449,15.749 L 7.677,15.749 L 7.677,15.826 L 7.830,15.826 L 7.830,15.902 L 8.058,15.902 L 8.058,15.978 L 8.287,15.978 L 8.287,16.054 L 8.515,16.054 L 8.515,16.130 L 8.744,16.130 L 8.744,16.206 L 9.124,16.206 L 9.124,16.282 L 9.505,16.282 L 9.505,16.359 L 10.495,16.359 L 10.495,16.282 L 10.952,16.282 L 10.952,16.206 L 11.256,16.206 L 11.256,16.130 L 11.561,16.130 L 11.561,16.054 L 11.790,16.054 L 11.790,15.978 L 12.018,15.978 L 12.018,15.902 L 12.246,15.902 L 12.246,15.826 L 12.399,15.826 L 12.399,15.749 L 12.551,15.749 L 12.551,15.673 L 12.779,15.673 L 12.779,15.597 L 12.932,15.597 L 12.932,15.521 L 13.084,15.521 L 13.084,15.445 L 13.236,15.445 L 13.236,15.521 L 13.313,15.521 L 13.313,15.826 L 13.389,15.826 L 13.389,15.978 L 13.465,15.978 L 13.465,16.206 L 13.541,16.206 L 13.541,16.359 L 13.617,16.359 L 13.617,16.511 L 13.693,16.511 L 13.693,16.663 L 13.769,16.663 L 13.769,16.892 L 13.693,16.892 L 13.693,16.968 L 13.617,16.968 L 13.617,17.044 L 13.465,17.044 L 13.465,17.120 L 13.389,17.120 L 13.389,17.196 L 13.236,17.196 L 13.236,17.272 L 13.084,17.272 L 13.084,17.349 L 13.008,17.349 L 13.008,17.425 L 12.856,17.425 L 12.856,17.501 L 12.703,17.501 L 12.703,17.577 L 12.551,17.577 L 12.551,17.653 L 12.323,17.653 L 12.323,17.729 L 12.170,17.729 L 12.170,17.805 L 11.942,17.805 L 11.942,17.882 L 11.713,17.882 L 11.713,17.958 L 11.485,17.958 L 11.485,18.034 L 11.180,18.034 L 11.180,18.110 L 10.800,18.110 L 10.800,18.186 L 10.114,18.186 L 10.114,18.262 L 9.962,18.262 L 9.962,18.186 L 9.277,18.186 L 9.277,18.110 L 8.896,18.110 L 8.896,18.034 L 8.591,18.034 L 8.591,17.958 L 8.363,17.958 L 8.363,17.882 L 8.134,17.882 L 8.134,17.805 L 7.906,17.805 L 7.906,17.729 L 7.677,17.729 L 7.677,17.653 L 7.525,17.653 L 7.525,17.577 L 7.373,17.577 L 7.373,17.501 L 7.221,17.501 L 7.221,17.425 L 7.068,17.425 L 7.068,17.349 L 6.916,17.349 L 6.916,17.272 L 6.764,17.272 L 6.764,17.196 L 6.687,17.196 L 6.687,17.120 L 6.535,17.120 L 6.535,17.044 L 6.459,17.044 L 6.459,16.968 L 6.307,16.968 L 6.307,16.892 L 6.231,16.892 Z M 7.677,10.647 L 7.677,11.180 L 7.754,11.180 L 7.754,11.333 L 7.830,11.333 L 7.830,11.485 L 7.982,11.485 L 7.982,11.561 L 8.058,11.561 L 8.058,11.637 L 8.210,11.637 L 8.210,11.713 L 8.439,11.713 L 8.439,11.790 L 8.591,11.790 L 8.591,11.866 L 8.744,11.866 L 8.744,11.942 L 8.820,11.942 L 8.820,12.018 L 8.972,12.018 L 8.972,12.094 L 9.124,12.094 L 9.124,12.018 L 9.200,12.018 L 9.200,11.942 L 9.277,11.942 L 9.277,11.333 L 9.200,11.333 L 9.200,11.104 L 9.124,11.104 L 9.124,10.876 L 9.048,10.876 L 9.048,10.800 L 8.972,10.800 L 8.972,10.647 L 8.896,10.647 L 8.896,10.495 L 8.820,10.495 L 8.820,10.419 L 8.744,10.419 L 8.744,10.343 L 8.667,10.343 L 8.667,10.267 L 8.591,10.267 L 8.591,10.190 L 8.515,10.190 L 8.515,10.114 L 8.058,10.114 L 8.058,10.190 L 7.982,10.190 L 7.982,10.267 L 7.906,10.267 L 7.906,10.343 L 7.830,10.343 L 7.830,10.495 L 7.754,10.495 L 7.754,10.647 Z M 5.697,16.663 L 5.697,16.892 L 5.774,16.892 L 5.774,16.968 L 5.850,16.968 L 5.850,17.044 L 5.926,17.044 L 5.926,17.120 L 6.002,17.120 L 6.002,17.196 L 6.078,17.196 L 6.078,17.272 L 6.154,17.272 L 6.154,17.349 L 6.307,17.349 L 6.307,17.425 L 6.383,17.425 L 6.383,17.501 L 6.535,17.501 L 6.535,17.577 L 6.687,17.577 L 6.687,17.653 L 6.764,17.653 L 6.764,17.729 L 6.916,17.729 L 6.916,17.805 L 7.068,17.805 L 7.068,17.882 L 7.221,17.882 L 7.221,17.958 L 7.373,17.958 L 7.373,18.034 L 7.525,18.034 L 7.525,18.110 L 7.677,18.110 L 7.677,18.186 L 7.906,18.186 L 7.906,18.262 L 8.058,18.262 L 8.058,18.338 L 8.287,18.338 L 8.287,18.415 L 8.515,18.415 L 8.515,18.491 L 8.820,18.491 L 8.820,18.567 L 9.124,18.567 L 9.124,18.643 L 9.505,18.643 L 9.505,18.719 L 10.495,18.719 L 10.495,18.643 L 10.952,18.643 L 10.952,18.567 L 11.256,18.567 L 11.256,18.491 L 11.485,18.491 L 11.485,18.415 L 11.790,18.415 L 11.790,18.338 L 11.942,18.338 L 11.942,18.262 L 12.170,18.262 L 12.170,18.186 L 12.323,18.186 L 12.323,18.110 L 12.475,18.110 L 12.475,18.034 L 12.703,18.034 L 12.703,17.958 L 12.856,17.958 L 12.856,17.882 L 13.008,17.882 L 13.008,17.805 L 13.160,17.805 L 13.160,17.729 L 13.236,17.729 L 13.236,17.653 L 13.389,17.653 L 13.389,17.577 L 13.541,17.577 L 13.541,17.501 L 13.617,17.501 L 13.617,17.425 L 13.769,17.425 L 13.769,17.349 L 13.846,17.349 L 13.846,17.272 L 13.998,17.272 L 13.998,17.196 L 14.074,17.196 L 14.074,17.120 L 14.150,17.120 L 14.150,17.044 L 14.226,17.044 L 14.226,16.968 L 14.303,16.968 L 14.303,16.892 L 14.379,16.892 L 14.379,16.739 L 14.303,16.739 L 14.303,16.587 L 14.226,16.587 L 14.226,16.511 L 14.150,16.511 L 14.150,16.359 L 14.074,16.359 L 14.074,16.282 L 13.998,16.282 L 13.998,16.130 L 13.922,16.130 L 13.922,15.978 L 13.846,15.978 L 13.846,15.826 L 13.769,15.826 L 13.769,15.597 L 13.693,15.597 L 13.693,15.369 L 13.617,15.369 L 13.617,15.064 L 13.693,15.064 L 13.693,14.912 L 13.769,14.912 L 13.769,14.759 L 13.693,14.759 L 13.693,14.607 L 13.617,14.607 L 13.617,14.455 L 13.541,14.455 L 13.541,14.226 L 13.465,14.226 L 13.465,13.998 L 13.389,13.998 L 13.389,13.617 L 13.313,13.617 L 13.313,13.236 L 13.389,13.236 L 13.389,12.856 L 13.465,12.856 L 13.465,12.627 L 13.541,12.627 L 13.541,12.475 L 13.617,12.475 L 13.617,12.323 L 13.693,12.323 L 13.693,12.246 L 13.769,12.246 L 13.769,12.094 L 13.617,12.094 L 13.617,12.170 L 13.541,12.170 L 13.541,12.246 L 13.465,12.246 L 13.465,12.323 L 13.389,12.323 L 13.389,12.399 L 13.313,12.399 L 13.313,12.475 L 13.236,12.475 L 13.236,12.551 L 13.160,12.551 L 13.160,12.627 L 13.084,12.627 L 13.084,12.779 L 13.008,12.779 L 13.008,12.856 L 12.932,12.856 L 12.932,12.932 L 12.779,12.932 L 12.779,13.008 L 12.551,13.008 L 12.551,13.084 L 12.323,13.084 L 12.323,13.160 L 12.094,13.160 L 12.094,13.236 L 11.790,13.236 L 11.790,13.313 L 11.485,13.313 L 11.485,13.389 L 10.952,13.389 L 10.952,13.465 L 9.048,13.465 L 9.048,13.389 L 8.591,13.389 L 8.591,13.313 L 8.210,13.313 L 8.210,13.236 L 7.982,13.236 L 7.982,13.160 L 7.677,13.160 L 7.677,13.084 L 7.525,13.084 L 7.525,13.008 L 7.297,13.008 L 7.297,12.932 L 7.144,12.932 L 7.144,12.856 L 7.068,12.856 L 7.068,12.779 L 6.992,12.779 L 6.992,12.703 L 6.916,12.703 L 6.916,12.551 L 6.840,12.551 L 6.840,12.475 L 6.764,12.475 L 6.764,12.399 L 6.687,12.399 L 6.687,12.323 L 6.611,12.323 L 6.611,12.246 L 6.535,12.246 L 6.535,12.170 L 6.383,12.170 L 6.383,12.094 L 6.231,12.094 L 6.231,12.170 L 6.307,12.170 L 6.307,12.246 L 6.383,12.246 L 6.383,12.399 L 6.459,12.399 L 6.459,12.551 L 6.535,12.551 L 6.535,12.703 L 6.611,12.703 L 6.611,12.932 L 6.687,12.932 L 6.687,13.922 L 6.611,13.922 L 6.611,14.150 L 6.535,14.150 L 6.535,14.379 L 6.459,14.379 L 6.459,14.531 L 6.383,14.531 L 6.383,14.683 L 6.307,14.683 L 6.307,14.912 L 6.383,14.912 L 6.383,15.140 L 6.459,15.140 L 6.459,15.216 L 6.383,15.216 L 6.383,15.521 L 6.307,15.521 L 6.307,15.749 L 6.231,15.749 L 6.231,15.902 L 6.154,15.902 L 6.154,16.054 L 6.078,16.054 L 6.078,16.206 L 6.002,16.206 L 6.002,16.359 L 5.926,16.359 L 5.926,16.435 L 5.850,16.435 L 5.850,16.587 L 5.774,16.587 L 5.774,16.663 Z M 1.662,3.337 L 1.662,4.327 L 1.738,4.327 L 1.738,4.936 L 1.814,4.936 L 1.814,5.317 L 1.890,5.317 L 1.890,5.621 L 1.966,5.621 L 1.966,5.850 L 2.118,5.850 L 2.118,5.774 L 2.195,5.774 L 2.195,5.697 L 2.271,5.697 L 2.271,5.621 L 2.347,5.621 L 2.347,5.545 L 2.423,5.545 L 2.423,5.469 L 2.499,5.469 L 2.499,5.393 L 2.575,5.393 L 2.575,5.317 L 2.651,5.317 L 2.651,5.241 L 2.804,5.241 L 2.804,5.164 L 2.880,5.164 L 2.880,5.088 L 3.032,5.088 L 3.032,5.012 L 3.108,5.012 L 3.108,4.936 L 3.337,4.936 L 3.337,4.860 L 3.489,4.860 L 3.489,4.784 L 3.565,4.784 L 3.565,4.708 L 3.413,4.708 L 3.413,4.631 L 3.337,4.631 L 3.337,4.555 L 3.185,4.555 L 3.185,4.479 L 3.108,4.479 L 3.108,4.403 L 2.956,4.403 L 2.956,4.327 L 2.880,4.327 L 2.880,4.251 L 2.728,4.251 L 2.728,4.174 L 2.651,4.174 L 2.651,4.098 L 2.499,4.098 L 2.499,4.022 L 2.423,4.022 L 2.423,3.946 L 2.347,3.946 L 2.347,3.870 L 2.195,3.870 L 2.195,3.794 L 2.118,3.794 L 2.118,3.718 L 2.042,3.718 L 2.042,3.641 L 1.966,3.641 L 1.966,3.565 L 1.890,3.565 L 1.890,3.489 L 1.814,3.489 L 1.814,3.413 L 1.738,3.413 L 1.738,3.337 Z M 10.800,11.180 L 10.800,11.942 L 10.876,11.942 L 10.876,12.094 L 11.104,12.094 L 11.104,12.018 L 11.180,12.018 L 11.180,11.942 L 11.333,11.942 L 11.333,11.866 L 11.409,11.866 L 11.409,11.790 L 11.637,11.790 L 11.637,11.713 L 11.866,11.713 L 11.866,11.637 L 12.018,11.637 L 12.018,11.561 L 12.094,11.561 L 12.094,11.485 L 12.170,11.485 L 12.170,11.409 L 12.246,11.409 L 12.246,11.333 L 12.323,11.333 L 12.323,11.104 L 12.399,11.104 L 12.399,10.800 L 12.323,10.800 L 12.323,10.495 L 12.246,10.495 L 12.246,10.343 L 12.170,10.343 L 12.170,10.267 L 12.094,10.267 L 12.094,10.190 L 12.018,10.190 L 12.018,10.114 L 11.561,10.114 L 11.561,10.190 L 11.485,10.190 L 11.485,10.267 L 11.409,10.267 L 11.409,10.343 L 11.333,10.343 L 11.333,10.419 L 11.256,10.419 L 11.256,10.495 L 11.180,10.495 L 11.180,10.571 L 11.104,10.571 L 11.104,10.723 L 11.028,10.723 L 11.028,10.876 L 10.952,10.876 L 10.952,11.028 L 10.876,11.028 L 10.876,11.180 Z M 15.140,6.154 L 15.140,6.383 L 15.369,6.383 L 15.369,6.459 L 15.597,6.459 L 15.597,6.535 L 15.749,6.535 L 15.749,6.611 L 15.902,6.611 L 15.902,6.687 L 15.978,6.687 L 15.978,6.764 L 16.130,6.764 L 16.130,6.840 L 16.206,6.840 L 16.206,6.916 L 16.282,6.916 L 16.282,6.992 L 16.359,6.992 L 16.359,7.068 L 16.435,7.068 L 16.435,7.144 L 16.511,7.144 L 16.511,7.221 L 16.587,7.221 L 16.587,7.373 L 16.663,7.373 L 16.663,7.449 L 16.739,7.449 L 16.739,7.601 L 16.815,7.601 L 16.815,7.677 L 16.892,7.677 L 16.892,7.830 L 17.044,7.830 L 17.044,7.677 L 17.120,7.677 L 17.120,7.601 L 17.196,7.601 L 17.196,7.525 L 17.272,7.525 L 17.272,7.373 L 17.349,7.373 L 17.349,7.297 L 17.425,7.297 L 17.425,7.221 L 17.501,7.221 L 17.501,7.068 L 17.577,7.068 L 17.577,6.916 L 17.653,6.916 L 17.653,6.764 L 17.729,6.764 L 17.729,6.687 L 17.805,6.687 L 17.805,6.611 L 17.729,6.611 L 17.729,6.459 L 17.653,6.459 L 17.653,6.383 L 17.577,6.383 L 17.577,6.231 L 17.501,6.231 L 17.501,6.154 L 17.425,6.154 L 17.425,6.078 L 17.349,6.078 L 17.349,6.002 L 17.272,6.002 L 17.272,5.926 L 17.196,5.926 L 17.196,5.850 L 17.120,5.850 L 17.120,5.774 L 17.044,5.774 L 17.044,5.697 L 16.968,5.697 L 16.968,5.621 L 16.815,5.621 L 16.815,5.545 L 16.739,5.545 L 16.739,5.469 L 16.587,5.469 L 16.587,5.393 L 16.435,5.393 L 16.435,5.317 L 16.206,5.317 L 16.206,5.241 L 15.902,5.241 L 15.902,5.317 L 15.826,5.317 L 15.826,5.393 L 15.749,5.393 L 15.749,5.469 L 15.673,5.469 L 15.673,5.545 L 15.597,5.545 L 15.597,5.621 L 15.521,5.621 L 15.521,5.697 L 15.445,5.697 L 15.445,5.850 L 15.369,5.850 L 15.369,5.926 L 15.292,5.926 L 15.292,6.078 L 15.216,6.078 L 15.216,6.154 Z M 12.018,9.048 L 12.018,9.353 L 12.170,9.353 L 12.170,9.277 L 12.475,9.277 L 12.475,9.200 L 12.703,9.200 L 12.703,9.124 L 12.932,9.124 L 12.932,9.048 L 13.084,9.048 L 13.084,8.972 L 13.236,8.972 L 13.236,8.896 L 13.389,8.896 L 13.389,8.820 L 13.465,8.820 L 13.465,8.744 L 13.541,8.744 L 13.541,8.667 L 13.617,8.667 L 13.617,8.515 L 13.693,8.515 L 13.693,8.363 L 13.769,8.363 L 13.769,7.525 L 13.693,7.525 L 13.693,7.297 L 13.541,7.297 L 13.541,7.373 L 13.313,7.373 L 13.313,7.449 L 13.160,7.449 L 13.160,7.525 L 13.084,7.525 L 13.084,7.601 L 12.932,7.601 L 12.932,7.677 L 12.856,7.677 L 12.856,7.754 L 12.779,7.754 L 12.779,7.830 L 12.703,7.830 L 12.703,7.906 L 12.627,7.906 L 12.627,7.982 L 12.551,7.982 L 12.551,8.134 L 12.475,8.134 L 12.475,8.210 L 12.399,8.210 L 12.399,8.363 L 12.323,8.363 L 12.323,8.515 L 12.246,8.515 L 12.246,8.667 L 12.170,8.667 L 12.170,8.820 L 12.094,8.820 L 12.094,9.048 Z M 14.683,7.221 L 14.683,7.449 L 14.759,7.449 L 14.759,7.601 L 14.836,7.601 L 14.836,7.754 L 14.912,7.754 L 14.912,7.830 L 14.988,7.830 L 14.988,7.982 L 15.064,7.982 L 15.064,8.058 L 15.140,8.058 L 15.140,8.134 L 15.216,8.134 L 15.216,8.210 L 15.292,8.210 L 15.292,8.287 L 15.369,8.287 L 15.369,8.363 L 15.521,8.363 L 15.521,8.439 L 15.597,8.439 L 15.597,8.515 L 15.826,8.515 L 15.826,8.591 L 16.130,8.591 L 16.130,8.515 L 16.282,8.515 L 16.282,8.439 L 16.435,8.439 L 16.435,8.363 L 16.511,8.363 L 16.511,8.210 L 16.435,8.210 L 16.435,8.058 L 16.359,8.058 L 16.359,7.906 L 16.282,7.906 L 16.282,7.754 L 16.206,7.754 L 16.206,7.677 L 16.130,7.677 L 16.130,7.601 L 16.054,7.601 L 16.054,7.525 L 15.978,7.525 L 15.978,7.373 L 15.826,7.373 L 15.826,7.297 L 15.749,7.297 L 15.749,7.221 L 15.673,7.221 L 15.673,7.144 L 15.521,7.144 L 15.521,7.068 L 15.445,7.068 L 15.445,6.992 L 15.216,6.992 L 15.216,6.916 L 14.988,6.916 L 14.988,6.840 L 14.912,6.840 L 14.912,6.916 L 14.836,6.916 L 14.836,7.068 L 14.759,7.068 L 14.759,7.221 Z M 2.271,6.535 L 2.271,6.687 L 2.347,6.687 L 2.347,6.840 L 2.423,6.840 L 2.423,6.992 L 2.499,6.992 L 2.499,7.068 L 2.575,7.068 L 2.575,7.221 L 2.651,7.221 L 2.651,7.297 L 2.728,7.297 L 2.728,7.449 L 2.804,7.449 L 2.804,7.525 L 2.880,7.525 L 2.880,7.677 L 2.956,7.677 L 2.956,7.754 L 3.032,7.754 L 3.032,7.830 L 3.185,7.830 L 3.185,7.677 L 3.261,7.677 L 3.261,7.525 L 3.337,7.525 L 3.337,7.449 L 3.413,7.449 L 3.413,7.297 L 3.489,7.297 L 3.489,7.221 L 3.565,7.221 L 3.565,7.144 L 3.641,7.144 L 3.641,7.068 L 3.718,7.068 L 3.718,6.992 L 3.794,6.992 L 3.794,6.916 L 3.870,6.916 L 3.870,6.840 L 3.946,6.840 L 3.946,6.764 L 4.098,6.764 L 4.098,6.687 L 4.174,6.687 L 4.174,6.611 L 4.327,6.611 L 4.327,6.535 L 4.479,6.535 L 4.479,6.459 L 4.708,6.459 L 4.708,6.383 L 4.936,6.383 L 4.936,6.231 L 4.860,6.231 L 4.860,6.078 L 4.784,6.078 L 4.784,5.926 L 4.708,5.926 L 4.708,5.850 L 4.631,5.850 L 4.631,5.774 L 4.555,5.774 L 4.555,5.621 L 4.479,5.621 L 4.479,5.545 L 4.403,5.545 L 4.403,5.469 L 4.327,5.469 L 4.327,5.393 L 4.251,5.393 L 4.251,5.317 L 4.174,5.317 L 4.174,5.241 L 3.870,5.241 L 3.870,5.317 L 3.641,5.317 L 3.641,5.393 L 3.489,5.393 L 3.489,5.469 L 3.337,5.469 L 3.337,5.545 L 3.185,5.545 L 3.185,5.621 L 3.108,5.621 L 3.108,5.697 L 3.032,5.697 L 3.032,5.774 L 2.880,5.774 L 2.880,5.850 L 2.804,5.850 L 2.804,5.926 L 2.728,5.926 L 2.728,6.002 L 2.651,6.002 L 2.651,6.154 L 2.575,6.154 L 2.575,6.231 L 2.499,6.231 L 2.499,6.307 L 2.423,6.307 L 2.423,6.459 L 2.347,6.459 L 2.347,6.535 Z M 6.307,7.373 L 6.307,8.439 L 6.383,8.439 L 6.383,8.591 L 6.459,8.591 L 6.459,8.667 L 6.535,8.667 L 6.535,8.744 L 6.611,8.744 L 6.611,8.820 L 6.687,8.820 L 6.687,8.896 L 6.840,8.896 L 6.840,8.972 L 6.992,8.972 L 6.992,9.048 L 7.144,9.048 L 7.144,9.124 L 7.297,9.124 L 7.297,9.200 L 7.601,9.200 L 7.601,9.277 L 7.906,9.277 L 7.906,9.353 L 7.982,9.353 L 7.982,9.277 L 8.058,9.277 L 8.058,9.200 L 7.982,9.200 L 7.982,8.896 L 7.906,8.896 L 7.906,8.667 L 7.830,8.667 L 7.830,8.515 L 7.754,8.515 L 7.754,8.363 L 7.677,8.363 L 7.677,8.287 L 7.601,8.287 L 7.601,8.134 L 7.525,8.134 L 7.525,8.058 L 7.449,8.058 L 7.449,7.906 L 7.373,7.906 L 7.373,7.830 L 7.297,7.830 L 7.297,7.754 L 7.221,7.754 L 7.221,7.677 L 7.068,7.677 L 7.068,7.601 L 6.992,7.601 L 6.992,7.525 L 6.916,7.525 L 6.916,7.449 L 6.764,7.449 L 6.764,7.373 L 6.535,7.373 L 6.535,7.297 L 6.383,7.297 L 6.383,7.373 Z" fill="#000000" fill-rule="nonzero"/>
</svg>
